<svg width="160" height="160" viewBox="0 0 160 160" fill="none" xmlns="http://www.w3.org/2000/svg">
<g clip-path="url(#clip0_2321_272)">
<path d="M160 122.368H0V122.448H160V122.368Z" fill="#EBEBEB"/>
<path d="M143.968 127.517H133.369V127.597H143.968V127.517Z" fill="#EBEBEB"/>
<path d="M105.991 128.387H103.21V128.467H105.991V128.387Z" fill="#EBEBEB"/>
<path d="M133.049 124.547H126.908V124.627H133.049V124.547Z" fill="#EBEBEB"/>
<path d="M30.6079 125.085H16.7871V125.165H30.6079V125.085Z" fill="#EBEBEB"/>
<path d="M35.4846 125.085H33.459V125.165H35.4846V125.085Z" fill="#EBEBEB"/>
<path d="M72.0479 126.436H42.0703V126.516H72.0479V126.436Z" fill="#EBEBEB"/>
<path d="M75.8403 108.096H14.0515C13.5675 108.095 13.1036 107.902 12.7616 107.559C12.4196 107.217 12.2275 106.752 12.2275 106.268V19.4108C12.2318 18.9295 12.4257 18.4694 12.7672 18.1302C13.1087 17.7911 13.5702 17.6004 14.0515 17.5996H75.8403C76.3249 17.5996 76.7897 17.7921 77.1324 18.1348C77.475 18.4775 77.6675 18.9422 77.6675 19.4268V106.268C77.6675 106.753 77.475 107.218 77.1324 107.56C76.7897 107.903 76.3249 108.096 75.8403 108.096ZM14.0515 17.6636C13.5887 17.6645 13.1451 17.8489 12.8182 18.1765C12.4912 18.5041 12.3075 18.948 12.3075 19.4108V106.268C12.3075 106.731 12.4912 107.175 12.8182 107.503C13.1451 107.83 13.5887 108.015 14.0515 108.016H75.8403C76.3035 108.015 76.7474 107.83 77.0749 107.503C77.4023 107.175 77.5867 106.732 77.5875 106.268V19.4108C77.5867 18.9477 77.4023 18.5038 77.0749 18.1763C76.7474 17.8488 76.3035 17.6645 75.8403 17.6636H14.0515Z" fill="#EBEBEB"/>
<path d="M145.059 108.096H83.2667C82.7823 108.095 82.318 107.902 81.9756 107.56C81.6331 107.217 81.4403 106.753 81.4395 106.268V19.4108C81.4445 18.9292 81.6391 18.4691 81.9812 18.13C82.3232 17.791 82.7851 17.6004 83.2667 17.5996H145.059C145.539 17.6013 146 17.7923 146.341 18.1314C146.682 18.4704 146.875 18.9301 146.879 19.4108V106.268C146.879 106.752 146.688 107.216 146.347 107.558C146.005 107.901 145.542 108.094 145.059 108.096ZM83.2667 17.6636C82.8035 17.6645 82.3596 17.8488 82.0321 18.1763C81.7046 18.5038 81.5203 18.9477 81.5195 19.4108V106.268C81.5203 106.732 81.7046 107.175 82.0321 107.503C82.3596 107.83 82.8035 108.015 83.2667 108.016H145.059C145.522 108.015 145.966 107.83 146.293 107.503C146.621 107.175 146.805 106.732 146.806 106.268V19.4108C146.805 18.9477 146.621 18.5038 146.293 18.1763C145.966 17.8488 145.522 17.6645 145.059 17.6636H83.2667Z" fill="#EBEBEB"/>
<path d="M73.0112 49.1835C102.957 48.9595 135.466 56.6715 151.984 54.0219C154.515 53.6155 156.694 54.9051 156.694 56.7835C156.694 57.9867 155.792 59.1771 154.342 59.8459C124.976 73.3627 76.7424 64.8571 53.5168 63.7755C38.0864 63.0555 21.616 69.7307 11.9168 74.5403C8.04476 76.4603 3.31836 74.8059 3.31836 71.5419C3.31836 69.9643 4.48636 68.4091 6.36156 67.4907C15.7856 62.8635 45.5776 49.3915 73.0112 49.1835Z" fill="#FAFAFA"/>
<path d="M86.9889 12.4799C57.0433 15.8207 24.5345 30.2015 8.01607 28.6303C7.41763 28.576 6.81443 28.6472 6.24504 28.8392C5.67565 29.0313 5.15259 29.34 4.70928 29.7456C4.26597 30.1513 3.91217 30.645 3.67048 31.1952C3.4288 31.7453 3.30455 32.3398 3.30567 32.9407C3.30449 33.7361 3.52402 34.5161 3.93983 35.1941C4.35564 35.872 4.95143 36.4213 5.66087 36.7807C35.0241 51.4815 83.2577 34.1151 106.483 29.8207C121.914 26.9695 138.384 33.9807 148.083 39.3087C148.968 39.7934 149.964 40.0393 150.972 40.0221C151.981 40.005 152.968 39.7254 153.836 39.211C154.703 38.6965 155.422 37.9649 155.921 37.0882C156.42 36.2115 156.682 35.2199 156.682 34.2111C156.684 33.1625 156.402 32.1328 155.866 31.2313C155.331 30.3299 154.561 29.5903 153.638 29.0911C144.214 23.9999 114.422 9.41754 86.9889 12.4799Z" fill="#FAFAFA"/>
<path d="M131.606 110.871C132.979 110.125 134.639 110.064 136.025 109.344C137.226 108.711 138.128 107.631 138.537 106.336C138.628 106.111 138.673 105.87 138.669 105.627C138.665 105.384 138.612 105.144 138.515 104.922C137.999 104 136.649 104.282 135.593 104.26C134.696 104.226 133.836 103.897 133.146 103.324C132.455 102.751 131.974 101.966 131.775 101.092C131.659 100.64 131.701 100.162 131.894 99.7379C132.195 99.1683 132.854 98.8931 133.407 98.5955C134.452 98.0398 135.376 97.2821 136.125 96.3663C136.874 95.4506 137.434 94.3951 137.772 93.2611C137.828 93.1263 137.857 92.9816 137.857 92.8355C137.857 92.6894 137.828 92.5447 137.772 92.4099C137.564 92.0483 137.055 92.0163 136.639 92.0899C134.892 92.3363 133.321 93.3475 131.571 93.5587C129.82 93.7699 127.644 92.5763 127.91 90.8355C128.095 89.6163 129.331 88.9155 130.326 88.1731C131.197 87.5331 131.964 86.7612 132.598 85.8851C132.964 85.4574 133.188 84.926 133.238 84.3651C133.238 83.0851 131.711 82.3107 130.454 82.4899C129.196 82.6691 128.118 83.4499 126.956 83.9779C126.663 84.1382 126.33 84.2125 125.996 84.1923C125.771 84.1431 125.559 84.0451 125.375 83.9052C125.192 83.7654 125.041 83.587 124.934 83.3827C123.974 81.8115 124.419 79.7443 125.254 78.0899C126.089 76.4355 127.251 74.9283 127.711 73.1395C127.987 72.0867 127.948 70.8387 127.183 70.0643C125.923 68.7843 123.599 69.7059 122.675 71.2419C121.75 72.7779 121.699 74.6691 121.228 76.4003C121.091 76.8963 120.867 77.4403 120.39 77.6291C119.913 77.8179 119.286 77.5235 118.889 77.1331C117.769 76.0387 117.449 74.3619 117.452 72.7939C117.452 71.3379 117.747 69.8883 117.615 68.4323C117.602 68.0464 117.457 67.6768 117.203 67.3859C116.054 66.2147 112.985 67.2771 111.878 68.0259C110.844 68.7267 110.044 70.0611 110.438 71.3283C110.671 72.0707 111.257 72.6467 111.593 73.3507C111.929 74.0547 111.897 75.0755 111.19 75.4019C110.852 75.5242 110.484 75.5399 110.137 75.4467C108.196 75.0945 106.384 74.2307 104.889 72.9443C104.041 72.2083 103.289 71.3443 102.329 70.7491C100.675 69.7219 98.2905 70.0515 98.0217 72.3011C97.9434 73.2119 98.2274 74.1168 98.8121 74.8195C99.3969 75.5092 100.131 76.0564 100.959 76.4195C101.786 76.7827 102.636 77.0916 103.503 77.3443C105.516 77.9843 107.516 78.7267 109.311 79.8403C109.647 80.0515 110.022 80.3779 109.935 80.7651C109.849 81.1523 109.356 81.2835 108.953 81.3219C105.186 81.6766 101.397 80.9319 98.0441 79.1779C95.8457 78.0227 93.6985 76.4003 91.2153 76.4355C90.7662 76.4113 90.3202 76.5228 89.9353 76.7555C89.2953 77.2099 89.1609 78.1411 89.4233 78.8739C89.7357 79.5928 90.2271 80.2196 90.8505 80.6947C92.5219 82.1463 94.4273 83.304 96.4857 84.1187C98.9529 85.0787 104.361 86.5571 102.719 88.5251C101.078 90.4931 98.4729 89.5011 96.5785 88.5411C94.9785 87.7219 93.7465 86.3011 92.2489 85.2835C90.7513 84.2659 88.6489 83.7155 87.1833 84.7779C86.6796 85.1322 86.3349 85.6699 86.2233 86.2755C86.0505 87.3827 86.8633 88.4131 87.7305 89.1043C91.2665 91.8787 101.545 91.9139 99.8617 94.7427C98.1785 97.5715 92.6521 95.0435 89.7209 93.0755C87.9481 91.8883 86.1561 90.1507 84.0569 90.5155C83.7671 90.5488 83.4903 90.654 83.2516 90.8217C83.0129 90.9894 82.82 91.2142 82.6905 91.4755C82.3705 92.2915 83.0105 93.1555 83.6505 93.7443C85.1194 95.0696 86.8588 96.0599 88.7481 96.6467C89.9129 97.0083 91.1385 97.2163 92.2201 97.7763C93.3017 98.3363 94.2585 99.3571 94.2937 100.576C94.3132 100.828 94.2729 101.08 94.1761 101.314C94.0794 101.547 93.9289 101.753 93.7369 101.917C93.1673 102.346 92.3609 102.173 91.6857 101.936C89.6836 101.241 87.8312 100.172 86.2265 98.7875C85.4553 98.1219 84.3737 97.3411 83.5353 97.9235C82.9689 98.3139 82.8953 99.1747 83.2153 99.7923C83.5353 100.41 84.0985 100.842 84.6553 101.248L90.1689 105.309C91.0521 105.949 92.0249 106.784 91.9929 107.869C91.9609 109.031 90.7129 109.863 89.5417 109.824C88.3705 109.786 87.3369 109.114 86.4249 108.394C85.4238 107.606 84.4962 106.729 83.6537 105.773C83.3113 105.386 82.8953 104.951 82.3737 104.999C81.5929 105.076 81.3913 106.138 81.5545 106.919C82.3545 110.669 86.3833 112.724 88.4793 115.936C89.8777 118.084 90.5689 120.928 92.8345 122.119L134.495 122.356C135.225 121.802 135.993 121.904 136.23 121.396C136.288 121.281 136.322 121.155 136.329 121.026C136.336 120.897 136.316 120.768 136.27 120.648C136.224 120.527 136.154 120.418 136.063 120.326C135.972 120.234 135.863 120.163 135.743 120.116C135.363 119.927 134.911 119.962 134.502 119.856C134.092 119.751 133.673 119.373 133.798 118.967C133.89 118.753 134.059 118.581 134.271 118.487C135.113 118.016 136.092 117.828 136.921 117.335C137.75 116.842 139.11 116.173 138.118 114.948C137.126 113.722 134.684 115.146 132.969 115.245C132.079 115.3 131.081 115.312 130.428 114.708C129.302 113.645 130.239 111.616 131.606 110.871Z" fill="#F0F0F0"/>
<path d="M25.1805 113.997C24.2589 113.453 23.0557 113.411 22.1245 112.883C21.7254 112.655 21.3829 112.34 21.1226 111.961C20.8622 111.582 20.6906 111.149 20.6205 110.695C20.5399 110.343 20.6008 109.974 20.7901 109.667C21.2637 108.995 22.2173 109.194 22.9885 109.184C23.6749 109.14 24.3341 108.9 24.8874 108.491C25.4407 108.083 25.8646 107.523 26.1085 106.88C26.2411 106.568 26.2614 106.22 26.1661 105.895C26.0093 105.479 25.5709 105.28 25.1869 105.063C24.4862 104.656 23.8877 104.094 23.4369 103.421C22.986 102.748 22.6948 101.981 22.5853 101.178C22.5328 100.968 22.565 100.746 22.6749 100.56C22.7836 100.446 22.9206 100.364 23.0719 100.32C23.2231 100.277 23.3832 100.275 23.5357 100.314C24.7805 100.493 25.8173 101.229 27.0557 101.383C28.2941 101.536 30.0189 100.669 30.0125 99.4018C30.0125 98.5122 29.1869 97.9938 28.5405 97.4626C27.9761 96.9958 27.4994 96.4324 27.1325 95.7986C26.9129 95.4729 26.8082 95.0833 26.8349 94.6914C26.9629 93.7634 28.1693 93.1938 29.0749 93.325C29.9805 93.4562 30.6749 94.0322 31.4589 94.4098C31.6643 94.5256 31.8986 94.58 32.1341 94.5666C32.4858 94.4857 32.7935 94.2741 32.9949 93.9746C33.8717 92.8322 33.7629 91.325 33.3373 90.1346C32.9117 88.9442 32.2269 87.8338 32.0797 86.5314C31.9965 85.7634 32.1565 84.8546 32.7965 84.2914C33.8525 83.3602 35.4461 84.029 35.9517 85.149C36.4573 86.269 36.2941 87.645 36.4541 88.9026C36.4989 89.2674 36.6013 89.661 36.9309 89.7986C37.2605 89.9362 37.7437 89.7218 38.0765 89.4402C39.0077 88.6402 39.4237 87.421 39.5901 86.2786C39.7437 85.2194 39.6861 84.1634 39.9389 83.101C39.9966 82.8123 40.1405 82.5478 40.3517 82.3426C41.3117 81.4882 43.4333 82.2626 44.1597 82.8098C44.5314 83.0717 44.8027 83.4526 44.9289 83.8894C45.0552 84.3263 45.0288 84.7931 44.8541 85.213C44.6045 85.7538 44.1149 86.173 43.7949 86.685C43.4749 87.197 43.3885 87.9426 43.8685 88.1794C44.1128 88.269 44.379 88.2802 44.6301 88.2114C46.1185 87.9378 47.5204 87.3136 48.7197 86.3906C49.4173 85.8562 50.0509 85.2226 50.8093 84.7906C52.1245 84.0418 53.8269 84.2818 53.7789 85.9202C53.7238 86.6123 53.4244 87.2622 52.9341 87.7538C52.439 88.2565 51.8482 88.6548 51.1965 88.925C50.5597 89.1886 49.9079 89.414 49.2445 89.6002C47.6822 90.0381 46.1733 90.6477 44.7453 91.4178C44.4797 91.5714 44.1725 91.8082 44.1949 92.0898C44.2173 92.3714 44.5597 92.4674 44.8349 92.4962C47.6508 92.735 50.4781 92.1948 53.0077 90.9346C54.7357 90.0962 56.4701 88.9122 58.2749 88.9378C58.5909 88.9203 58.9041 89.0056 59.1677 89.181C59.5805 89.501 59.5805 90.189 59.3117 90.7234C59.0022 91.2504 58.5805 91.7027 58.0765 92.0482C56.7161 93.0984 55.206 93.9387 53.5965 94.541C51.6957 95.2514 47.5997 96.317 48.5821 97.741C49.5645 99.165 51.5677 98.4514 53.0621 97.741C54.3261 97.1458 55.3661 96.109 56.5661 95.3698C57.7661 94.6306 59.3565 94.2274 60.3069 95.0018C60.4716 95.1328 60.6054 95.2985 60.6989 95.4871C60.7924 95.6757 60.8431 95.8826 60.8477 96.093C60.8477 96.8994 60.1629 97.6482 59.4461 98.1538C56.5661 100.173 49.0845 100.199 50.0093 102.256C50.9341 104.314 55.2221 102.477 57.5709 101.043C58.9885 100.179 60.4829 98.9154 61.9677 99.1874C62.1672 99.2058 62.3574 99.281 62.5156 99.404C62.6738 99.5271 62.7935 99.6929 62.8605 99.8818C63.0077 100.474 62.4477 101.104 61.9005 101.533C60.7069 102.489 59.34 103.206 57.8749 103.645C56.9885 103.911 56.0765 104.061 55.2285 104.467C54.3805 104.874 53.5741 105.619 53.4173 106.506C53.3763 106.675 53.3785 106.851 53.4238 107.019C53.4691 107.187 53.556 107.34 53.6765 107.466C54.0445 107.786 54.6525 107.651 55.1677 107.482C56.7349 106.974 58.2059 106.207 59.5197 105.213C60.1597 104.727 61.0237 104.157 61.5741 104.573C61.9453 104.861 61.8941 105.485 61.6061 105.936C61.2815 106.369 60.8721 106.73 60.4029 106.999L55.9517 109.952C55.2381 110.426 54.4413 111.027 54.3517 111.824C54.2621 112.621 55.0781 113.274 55.9261 113.245C56.7741 113.216 57.6093 112.73 58.3517 112.208C59.1655 111.628 59.9336 110.986 60.6493 110.288C60.9405 110.007 61.2893 109.69 61.6573 109.725C62.2173 109.779 62.2493 110.554 62.0477 111.111C61.0621 113.843 57.9101 115.338 56.0349 117.68C54.7869 119.242 53.9773 121.312 52.1949 122.179L21.8365 122.352C21.3693 121.949 20.7965 122.032 20.6813 121.642C20.6309 121.453 20.6537 121.253 20.7452 121.081C20.8366 120.909 20.9898 120.778 21.1741 120.714C21.4774 120.62 21.7894 120.557 22.1053 120.525C22.4253 120.448 22.7453 120.173 22.7133 119.885C22.6926 119.809 22.6555 119.738 22.6047 119.678C22.5538 119.618 22.4904 119.569 22.4189 119.536C21.8589 119.191 21.1645 119.053 20.6141 118.695C20.0637 118.336 19.1453 117.85 19.9997 116.957C20.8541 116.064 22.4797 117.104 23.7181 117.175C24.3581 117.213 25.0845 117.226 25.6381 116.784C26.5597 116.016 26.0989 114.541 25.1805 113.997Z" fill="#F0F0F0"/>
<path d="M110.08 73.0845C110.08 73.0845 111.68 72.7421 112.176 73.1805C112.701 72.5405 115.494 70.5246 116.976 71.6958C116.765 73.5645 113.376 74.1277 112.544 74.0381C112.486 74.6269 111.203 75.4749 111.203 75.4749C111.239 74.9652 111.334 74.4615 111.488 73.9741C110.956 73.7905 110.474 73.486 110.08 73.0845Z" fill="#E6E6E6"/>
<path d="M121.821 68.7646C122.237 67.891 124.983 64.7774 127.229 65.475C127.645 67.5102 123.642 69.315 122.577 69.539C122.714 70.179 121.431 71.5294 121.431 71.5294C121.29 70.9819 121.226 70.4177 121.239 69.8526C120.532 69.8531 119.833 69.7082 119.185 69.427C119.185 69.427 121.066 68.4798 121.821 68.7646Z" fill="#E6E6E6"/>
<path d="M125.312 61.6095C125.654 62.1375 124.928 64.0415 124.928 64.0415C124.61 63.5858 124.362 63.0854 124.192 62.5567C123.566 62.8995 122.875 63.1067 122.163 63.1647C122.163 63.1647 123.571 61.3567 124.361 61.2447C124.451 60.2175 125.926 55.9487 128.221 55.5039C129.28 57.2191 126.221 60.8895 125.312 61.6095Z" fill="#E6E6E6"/>
<path d="M115.767 60.9339C115.642 62.0443 113.629 62.3771 113.137 62.3259C113.101 62.6747 112.34 63.1771 112.34 63.1771C112.361 62.8749 112.418 62.5763 112.509 62.2875C112.196 62.1774 111.913 61.9968 111.681 61.7595C111.681 61.7595 112.641 61.5547 112.925 61.8139C113.236 61.4395 114.881 60.2395 115.767 60.9339Z" fill="#E6E6E6"/>
<path d="M114.368 59.0909C114.368 59.4301 113.642 60.1405 113.642 60.1405C113.624 59.8436 113.645 59.5458 113.703 59.2541C113.374 59.2559 113.05 59.1768 112.759 59.0237C112.759 59.0237 113.741 58.5277 114.077 58.6813C114.356 58.2205 115.949 56.5821 116.957 56.9565C116.973 58.0317 114.896 58.9853 114.368 59.0909Z" fill="#E6E6E6"/>
<path d="M124.864 54.8609C124.64 54.619 124.453 54.3451 124.31 54.0481C123.971 54.3018 123.582 54.4806 123.168 54.5729C123.168 54.5729 123.846 53.3921 124.301 53.2673C124.269 52.6561 124.784 50.0257 126.096 49.5713C126.861 50.4897 125.363 52.8993 124.89 53.4113C125.136 53.6801 124.864 54.8609 124.864 54.8609Z" fill="#E6E6E6"/>
<path d="M125.478 71.3793C125.798 70.9761 127.532 69.7345 128.441 70.4609C128.313 71.6193 126.201 71.9681 125.699 71.9137C125.664 72.2785 124.867 72.8033 124.867 72.8033C124.889 72.4871 124.949 72.1747 125.043 71.8721C124.716 71.7573 124.421 71.569 124.179 71.3217C124.179 71.3217 125.177 71.1073 125.478 71.3793Z" fill="#E6E6E6"/>
<path d="M129.98 66.9919C130.272 66.5087 131.932 64.7999 132.988 65.1903C132.988 66.3135 130.835 67.3087 130.284 67.4303C130.284 67.7823 129.526 68.5247 129.526 68.5247C129.507 68.2151 129.527 67.9043 129.587 67.5999C129.245 67.6011 128.908 67.5187 128.604 67.3599C128.604 67.3599 129.632 66.8319 129.98 66.9919Z" fill="#E6E6E6"/>
<path d="M132.636 69.6094C132.854 69.0494 134.409 67.0046 135.836 67.331C136.185 68.5726 133.795 69.891 133.145 70.0542C133.26 70.4414 132.528 71.3342 132.528 71.3342C132.416 71.0023 132.352 70.6566 132.336 70.307C131.902 70.3397 131.466 70.2819 131.056 70.1374C131.056 70.1374 132.16 69.4686 132.636 69.6094Z" fill="#E6E6E6"/>
<path d="M133.622 62.56C133.779 62.2944 134.688 61.4176 135.286 61.7664C135.309 62.4576 134.106 62.8416 133.798 62.8544C133.798 63.072 133.386 63.4464 133.386 63.4464C133.372 63.2594 133.38 63.0713 133.411 62.8864C133.209 62.8476 133.018 62.7622 132.854 62.6368C132.854 62.6368 133.44 62.4256 133.622 62.56Z" fill="#E6E6E6"/>
<path d="M113.808 69.5003C113.78 68.9997 113.815 68.4975 113.913 68.0059C113.356 68.0103 112.807 67.8773 112.313 67.6187C112.313 67.6187 113.971 66.7835 114.537 67.0395C115.005 66.2619 117.686 63.5035 119.389 64.1339C119.411 65.9483 115.913 67.5515 115.024 67.7307C115.049 68.3003 113.808 69.5003 113.808 69.5003Z" fill="#E6E6E6"/>
<path d="M120.364 60.0099C120.476 60.3811 119.772 61.2387 119.772 61.2387C119.666 60.9211 119.604 60.5907 119.587 60.2563C119.168 60.2869 118.748 60.2313 118.352 60.0931C118.352 60.0931 119.424 59.4531 119.884 59.5875C120.092 59.0499 121.584 57.0883 122.944 57.4019C123.276 58.5891 120.985 59.8403 120.364 60.0099Z" fill="#E6E6E6"/>
<path d="M134.893 65.555C134.893 65.555 135.91 64.563 136.403 64.5662C136.547 63.9454 137.814 61.4526 139.261 61.3662C139.766 62.5054 137.574 64.4958 136.957 64.8606C137.123 65.2158 136.515 66.3198 136.515 66.3198C136.363 66.0169 136.255 65.6936 136.195 65.3598C135.78 65.5162 135.336 65.5828 134.893 65.555Z" fill="#E6E6E6"/>
<path d="M130.195 60.7388C130.247 60.9692 129.84 61.558 129.84 61.558C129.788 61.3573 129.761 61.1509 129.76 60.9436C129.536 60.9896 129.304 60.9797 129.085 60.9148C129.085 60.9148 129.69 60.4412 129.939 60.4988C130.067 60.1468 130.931 58.806 131.674 58.9244C131.84 59.6604 130.541 60.5948 130.195 60.7388Z" fill="#E6E6E6"/>
<path d="M130.752 50.5376C130.627 50.398 130.519 50.2432 130.432 50.0768C130.272 50.202 130.083 50.2855 129.882 50.32C129.882 50.32 130.179 49.7056 130.403 49.6544C130.365 49.3344 130.535 47.9168 131.171 47.7344C131.584 48.2592 130.919 49.5072 130.698 49.76C130.848 49.92 130.752 50.5376 130.752 50.5376Z" fill="#E6E6E6"/>
<path d="M135.562 58.4992C135.661 58.7168 135.309 59.3024 135.309 59.3024C135.215 59.1174 135.147 58.9204 135.107 58.7168C134.853 58.7697 134.59 58.7697 134.336 58.7168C134.336 58.7168 134.934 58.2272 135.229 58.2688C135.309 57.92 136.045 56.5856 136.909 56.6688C137.219 57.3664 135.926 58.3392 135.562 58.4992Z" fill="#E6E6E6"/>
<path d="M133.033 54.5982C133.193 54.8382 132.87 55.7054 132.87 55.7054C132.723 55.5007 132.608 55.2753 132.528 55.0366C132.245 55.1933 131.932 55.2892 131.609 55.3182C131.609 55.3182 132.249 54.4894 132.601 54.4414C132.64 53.9742 133.296 52.0286 134.336 51.8174C134.825 52.5918 133.44 54.2718 133.033 54.5982Z" fill="#E6E6E6"/>
<path d="M138.02 52.4323C138.02 52.4323 138.733 51.2547 139.277 51.2131C139.178 50.5187 139.559 47.6931 141.111 47.4531C142.128 48.6499 140.535 51.0307 140.004 51.4851C140.324 51.8563 140.109 53.1203 140.109 53.1203C139.819 52.8083 139.568 52.4623 139.36 52.0899C138.946 52.3054 138.487 52.4226 138.02 52.4323Z" fill="#E6E6E6"/>
<path d="M133.139 43.1996C133.107 42.39 133.936 39.0396 135.869 38.6748C136.96 40.022 134.701 42.9116 133.994 43.4748C134.343 43.8908 133.914 45.3948 133.914 45.3948C133.6 45.0427 133.335 44.6498 133.127 44.2268C132.604 44.5007 132.031 44.6641 131.443 44.7068C131.443 44.7068 132.48 43.2732 133.139 43.1996Z" fill="#E6E6E6"/>
<path d="M102.471 73.6155C102.756 72.8571 104.829 70.0955 106.746 70.5147C107.226 72.1787 104.02 73.9611 103.146 74.2043C103.306 74.7259 102.33 75.9387 102.33 75.9387C102.176 75.4927 102.084 75.0275 102.058 74.5563C101.47 74.6054 100.879 74.5324 100.32 74.3419C100.32 74.3419 101.821 73.4267 102.471 73.6155Z" fill="#E6E6E6"/>
<path d="M133.075 35.9875C133.532 36.2467 133.731 37.9363 133.731 37.9363C133.321 37.7218 132.944 37.4479 132.614 37.1235C132.279 37.6196 131.843 38.0394 131.334 38.3555C131.334 38.3555 131.676 36.4739 132.224 36.0899C131.904 35.2995 131.334 31.5715 132.864 30.3555C134.32 31.2099 133.472 35.1075 133.075 35.9875Z" fill="#E6E6E6"/>
<path d="M125.638 39.7378C125.974 40.6082 124.614 41.6322 124.227 41.7826C124.339 42.0546 123.967 42.7202 123.967 42.7202C123.867 42.4883 123.794 42.2456 123.75 41.997C123.475 42.0367 123.195 42.0126 122.931 41.9266C122.931 41.9266 123.571 41.405 123.875 41.4882C123.955 41.0786 124.723 39.5618 125.638 39.7378Z" fill="#E6E6E6"/>
<path d="M123.891 38.9154C124.028 39.1618 123.756 39.9714 123.756 39.9714C123.63 39.7587 123.531 39.5307 123.462 39.293C123.219 39.4208 122.949 39.4867 122.675 39.485C122.675 39.485 123.2 38.7394 123.52 38.7202C123.545 38.2722 124.089 36.445 124.982 36.333C125.408 37.1202 124.24 38.6306 123.891 38.9154Z" fill="#E6E6E6"/>
<path d="M130.023 31.7307C129.762 31.64 129.518 31.5105 129.296 31.3467C129.143 31.6644 128.925 31.9467 128.656 32.1755C128.656 32.1755 128.701 31.0395 128.976 30.7707C128.717 30.3323 128.08 28.1883 128.877 27.3467C129.799 27.7275 129.623 30.0891 129.463 30.6427C129.767 30.7547 130.023 31.7307 130.023 31.7307Z" fill="#E6E6E6"/>
<path d="M135.098 48.733C135.123 48.301 135.693 46.621 136.662 46.669C137.139 47.517 135.885 48.7746 135.507 48.989C135.661 49.2514 135.379 49.9938 135.379 49.9938C135.239 49.7699 135.125 49.5304 135.04 49.2802C134.763 49.3612 134.47 49.3777 134.186 49.3282C134.186 49.3282 134.765 48.6946 135.098 48.733Z" fill="#E6E6E6"/>
<path d="M139.817 43.558C139.846 43.0908 140.416 41.1868 141.347 41.0684C141.792 41.894 140.573 43.4652 140.208 43.7596C140.352 44.0156 140.07 44.8636 140.07 44.8636C139.934 44.6414 139.826 44.4027 139.75 44.1532C139.497 44.2871 139.214 44.3564 138.928 44.3548C138.928 44.3548 139.497 43.5772 139.817 43.558Z" fill="#E6E6E6"/>
<path d="M139.871 37.4558C140.019 36.9758 141.183 35.1774 142.387 35.363C142.751 36.3742 140.844 37.603 140.313 37.795C140.435 38.115 139.878 38.899 139.878 38.899C139.765 38.6288 139.69 38.3446 139.654 38.0542C139.293 38.1081 138.925 38.0874 138.572 37.9934C138.572 37.9934 139.462 37.3662 139.871 37.4558Z" fill="#E6E6E6"/>
<path d="M139.11 32.3515C139.11 32.0955 139.459 31.0939 140.035 31.1227C140.319 31.6251 139.577 32.3739 139.353 32.5019C139.446 32.6587 139.279 33.1003 139.279 33.1003C139.196 32.9671 139.13 32.8241 139.081 32.6747C138.916 32.724 138.742 32.7349 138.572 32.7067C138.572 32.7067 138.911 32.3195 139.11 32.3515Z" fill="#E6E6E6"/>
<path d="M127.498 46.8285C127.283 46.4695 127.114 46.0845 126.996 45.6829C126.587 45.8964 126.132 46.0063 125.671 46.0029C125.671 46.0029 126.573 44.7485 127.092 44.7229C127.14 43.9645 128.052 40.8829 129.559 40.6973C130.276 42.0317 128.308 44.5661 127.719 45.0461C127.952 45.4621 127.498 46.8285 127.498 46.8285Z" fill="#E6E6E6"/>
<path d="M100.019 70.8539C99.8032 70.4949 99.6343 70.1099 99.5162 69.7083C99.1075 69.9218 98.6525 70.0317 98.1914 70.0283C98.1914 70.0283 99.0938 68.7739 99.6122 68.7483C99.6602 67.9931 100.572 64.9083 102.079 64.7227C102.796 66.0571 100.828 68.5947 100.239 69.0715C100.479 69.4875 100.019 70.8539 100.019 70.8539Z" fill="#E6E6E6"/>
<path d="M128.682 37.2803C128.906 37.5107 128.717 38.4163 128.717 38.4163C128.516 38.2278 128.343 38.0124 128.202 37.7763C127.904 37.9602 127.572 38.0811 127.226 38.1315C127.226 38.1315 127.77 37.2451 128.163 37.1715C128.109 36.6947 128.454 34.6691 129.584 34.3779C130.288 35.1043 129.075 36.9155 128.682 37.2803Z" fill="#E6E6E6"/>
<path d="M142.191 32.7424C142.191 32.7424 142.559 31.6192 142.927 31.4304C142.79 30.9152 142.767 28.5824 143.804 27.9648C144.62 28.6048 143.769 30.9312 143.452 31.4368C143.711 31.6352 143.689 32.688 143.689 32.688C143.455 32.5221 143.247 32.3226 143.071 32.096C142.827 32.3708 142.527 32.5911 142.191 32.7424Z" fill="#E6E6E6"/>
<path d="M136.234 34.0252C136.359 34.1724 136.288 34.7644 136.288 34.7644C136.171 34.6372 136.071 34.4952 135.991 34.342C135.842 34.4621 135.666 34.5444 135.479 34.582C135.479 34.582 135.744 33.9964 135.952 33.942C135.907 33.622 136.032 32.3068 136.624 32.1084C137.024 32.5916 136.432 33.782 136.234 34.0252Z" fill="#E6E6E6"/>
<path d="M132.541 23.8435C132.398 23.7868 132.262 23.7127 132.138 23.6227C132.07 23.7702 131.968 23.8996 131.84 24.0003C131.84 24.0003 131.824 23.4307 131.968 23.3059C131.814 23.0755 131.395 21.9715 131.792 21.5811C132.298 21.8115 132.288 22.9923 132.224 23.2611C132.368 23.3603 132.541 23.8435 132.541 23.8435Z" fill="#E6E6E6"/>
<path d="M139.501 26.1151C139.661 26.2367 139.625 26.8095 139.625 26.8095C139.484 26.7082 139.358 26.5876 139.251 26.4511C139.086 26.5954 138.893 26.7043 138.685 26.7711C138.685 26.7711 138.937 26.1791 139.171 26.0959C139.097 25.8079 139.126 24.5343 139.792 24.2559C140.291 24.6399 139.709 25.8559 139.501 26.1151Z" fill="#E6E6E6"/>
<path d="M134.966 28.0864C135.177 28.2016 135.286 28.9696 135.286 28.9696C135.098 28.8733 134.925 28.7492 134.774 28.6016C134.625 28.8287 134.43 29.0218 134.201 29.168C134.201 29.168 134.352 28.3104 134.598 28.1344C134.444 27.776 134.179 26.0832 134.867 25.5264C135.516 25.92 135.142 27.6832 134.966 28.0864Z" fill="#E6E6E6"/>
<path d="M97.04 62.0001C97.04 62.0001 98.56 61.3601 99.1168 61.6801C99.5072 60.9377 101.859 58.4321 103.53 59.2993C103.686 61.1713 100.47 62.3809 99.6352 62.4545C99.6928 63.0401 98.5984 64.1217 98.5984 64.1217C98.5387 63.6147 98.5387 63.1023 98.5984 62.5953C98.0403 62.5188 97.5071 62.3152 97.04 62.0001Z" fill="#E6E6E6"/>
<path d="M107.735 56.9888C107.972 56.048 110.065 52.464 112.404 52.7136C113.204 54.6336 109.626 57.1936 108.622 57.6C108.884 58.1984 107.882 59.776 107.882 59.776C107.64 59.2686 107.469 58.7302 107.374 58.176C106.68 58.3147 105.965 58.3081 105.274 58.1568C105.274 58.1568 106.935 56.8544 107.735 56.9888Z" fill="#E6E6E6"/>
<path d="M109.76 47.7923C110.198 48.2467 109.856 50.2531 109.856 50.2531C109.456 49.8682 109.115 49.4261 108.845 48.9411C108.297 49.398 107.659 49.7349 106.973 49.9299C106.973 49.9299 108.003 47.8787 108.758 47.6259C108.646 46.6019 109.27 42.1283 111.437 41.2451C112.822 42.7171 110.525 46.9123 109.76 47.7923Z" fill="#E6E6E6"/>
<path d="M100.279 48.9762C100.372 50.0898 98.4614 50.8066 97.9654 50.8514C98.0006 51.2002 97.351 51.8402 97.351 51.8402C97.315 51.5383 97.315 51.2332 97.351 50.9314C97.0218 50.8846 96.7076 50.7631 96.4326 50.5762C96.4326 50.5762 97.335 50.189 97.6678 50.3906C97.8918 49.949 99.287 48.4642 100.279 48.9762Z" fill="#E6E6E6"/>
<path d="M98.5596 47.4395C98.6332 47.7595 98.0476 48.6075 98.0476 48.6075C97.9728 48.3201 97.9352 48.0244 97.9356 47.7275C97.6167 47.791 97.2871 47.7757 96.9756 47.6827C96.9756 47.6827 97.846 47.0075 98.2044 47.0907C98.3868 46.5851 99.6348 44.6715 100.697 44.8507C100.899 45.8971 99.046 47.2315 98.5596 47.4395Z" fill="#E6E6E6"/>
<path d="M108.032 41.2573C107.765 41.0629 107.527 40.83 107.328 40.5661C107.045 40.8806 106.698 41.1314 106.311 41.3021C106.311 41.3021 106.746 40.0221 107.168 39.8013C107.018 39.2093 107.015 36.5277 108.215 35.8301C109.146 36.5821 108.141 39.2381 107.773 39.8173C108.067 40.0477 108.032 41.2573 108.032 41.2573Z" fill="#E6E6E6"/>
<path d="M106.56 64.7647C106.8 64.3039 108.259 62.7519 109.293 63.2895C109.389 64.4511 107.399 65.2095 106.88 65.2447C106.915 65.6095 106.24 66.2783 106.24 66.2783C106.202 65.9595 106.202 65.6371 106.24 65.3183C105.896 65.2685 105.567 65.1405 105.28 64.9439C105.28 64.9439 106.215 64.5567 106.56 64.7647Z" fill="#E6E6E6"/>
<path d="M115.395 52.1596C115.587 51.6316 116.886 49.6348 117.997 49.8108C118.227 50.9116 116.294 52.3068 115.776 52.5212C115.853 52.8636 115.242 53.7436 115.242 53.7436C115.165 53.4423 115.126 53.1327 115.126 52.822C114.791 52.8909 114.443 52.8755 114.115 52.7771C114.115 52.7771 115.021 52.0828 115.395 52.1596Z" fill="#E6E6E6"/>
<path d="M118.509 54.2271C118.611 53.6351 119.741 51.3279 121.2 51.3727C121.779 52.5215 119.686 54.2527 119.085 54.5727C119.27 54.9311 118.726 55.9519 118.726 55.9519C118.554 55.6514 118.423 55.3283 118.339 54.9919C117.916 55.1084 117.474 55.1367 117.04 55.0751C117.04 55.0751 118.01 54.1791 118.509 54.2271Z" fill="#E6E6E6"/>
<path d="M118.111 47.1166C118.214 46.8286 118.934 45.7918 119.59 46.0158C119.746 46.691 118.63 47.2958 118.338 47.3726C118.393 47.5838 118.05 48.035 118.05 48.035C118.001 47.8532 117.972 47.6664 117.964 47.4782C117.759 47.4784 117.557 47.4324 117.372 47.3438C117.372 47.3438 117.89 47.0398 118.111 47.1166Z" fill="#E6E6E6"/>
<path d="M100.012 57.7596C99.8871 57.2736 99.8247 56.7735 99.8266 56.2716C99.2839 56.3813 98.7227 56.3572 98.1914 56.2012C98.1914 56.2012 99.657 55.0588 100.262 55.2028C100.582 54.3484 102.668 51.1228 104.46 51.414C104.835 53.19 101.711 55.4364 100.873 55.7884C100.998 56.342 100.012 57.7596 100.012 57.7596Z" fill="#E6E6E6"/>
<path d="M104.611 47.181C104.79 47.5234 104.268 48.4994 104.268 48.4994C104.102 48.209 103.977 47.8966 103.897 47.5714C103.492 47.6819 103.068 47.708 102.652 47.6482C102.652 47.6482 103.58 46.813 104.057 46.8578C104.16 46.2914 105.241 44.077 106.636 44.1218C107.2 45.2226 105.187 46.893 104.611 47.181Z" fill="#E6E6E6"/>
<path d="M119.937 49.8115C119.937 49.8115 120.743 48.6435 121.217 48.5507C121.236 47.9107 121.997 45.2195 123.402 44.8643C124.119 45.8819 122.353 48.2627 121.818 48.7363C122.049 49.0563 121.665 50.2563 121.665 50.2563C121.452 49.9859 121.281 49.6848 121.159 49.3635C120.786 49.595 120.37 49.7475 119.937 49.8115Z" fill="#E6E6E6"/>
<path d="M114.397 45.9969C114.493 46.2113 114.208 46.8673 114.208 46.8673C114.118 46.68 114.051 46.4822 114.01 46.2785C113.798 46.3666 113.569 46.4018 113.341 46.3809C113.341 46.3809 113.843 45.7985 114.099 45.8081C114.157 45.4369 114.739 43.9585 115.494 43.9297C115.792 44.6177 114.707 45.7857 114.397 45.9969Z" fill="#E6E6E6"/>
<path d="M112.96 35.8783C112.815 35.7634 112.685 35.6312 112.573 35.4847C112.439 35.6375 112.27 35.7551 112.08 35.8271C112.08 35.8271 112.253 35.1679 112.464 35.0751C112.362 34.7551 112.256 33.3471 112.845 33.0303C113.347 33.4655 112.938 34.8191 112.771 35.1103C112.941 35.2415 112.96 35.8783 112.96 35.8783Z" fill="#E6E6E6"/>
<path d="M119.23 42.7579C119.37 42.9499 119.137 43.5963 119.137 43.5963C119.006 43.4328 118.898 43.2519 118.817 43.0587C118.579 43.1637 118.322 43.2192 118.062 43.2219C118.062 43.2219 118.554 42.6235 118.852 42.6075C118.852 42.2523 119.329 40.7995 120.186 40.6875C120.641 41.3275 119.556 42.5307 119.23 42.7579Z" fill="#E6E6E6"/>
<path d="M115.997 39.4209C116.199 39.6257 116.048 40.5409 116.048 40.5409C115.865 40.3665 115.709 40.1659 115.584 39.9457C115.337 40.1558 115.048 40.3117 114.736 40.4033C114.736 40.4033 115.197 39.4689 115.54 39.3505C115.485 38.8833 115.754 36.8481 116.736 36.4385C117.364 37.1201 116.336 39.0209 115.997 39.4209Z" fill="#E6E6E6"/>
<path d="M79.9999 136.819C114.266 136.819 142.045 135.197 142.045 133.197C142.045 131.196 114.266 129.574 79.9999 129.574C45.7335 129.574 17.9551 131.196 17.9551 133.197C17.9551 135.197 45.7335 136.819 79.9999 136.819Z" fill="#F5F5F5"/>
<path d="M135.904 115.38C135.085 116.417 134.045 117.271 133.462 118.475C132.845 119.755 132.822 121.236 132.342 122.571C131.616 124.555 129.878 126.004 128.019 126.644C126.16 127.284 124.198 127.204 122.33 126.871C121.03 126.641 119.341 126.478 118.81 128.033C118.738 128.246 118.695 128.468 118.682 128.692C118.682 128.804 118.682 128.919 118.666 129.031C118.621 130.631 117.386 131.937 115.936 131.937H111.258C110.798 131.932 110.349 131.794 109.966 131.539C109.582 131.285 109.281 130.925 109.098 130.503C108.553 129.301 108.307 127.984 108.382 126.665C108.456 125.347 108.849 124.066 109.526 122.932C110.029 122.135 110.669 121.435 111.094 120.59C111.91 118.971 111.837 117.031 111.43 115.316C110.509 111.438 108.032 108.174 107.59 104.164C107.453 102.945 107.536 101.604 108.198 100.561C108.766 99.7227 109.606 99.1066 110.576 98.817C112.054 98.3402 113.846 98.609 114.624 99.9818C115.526 101.582 114.694 103.729 114.701 105.655C114.689 107.157 115.263 108.605 116.301 109.691C116.883 110.27 117.706 110.702 118.49 110.414C118.977 110.185 119.39 109.825 119.683 109.374C120.814 107.842 121.498 106.026 121.661 104.129C121.805 102.411 121.507 100.718 121.44 99.009C121.306 95.0034 122.396 91.0521 124.563 87.681C126.651 84.4088 129.756 81.9137 133.402 80.5802C134.698 80.1258 136.259 79.9114 137.194 80.9002C137.693 81.425 137.907 82.1802 138.035 82.9514C138.707 86.9994 137.248 91.3002 135.094 94.8746C132.941 98.449 130.122 101.489 127.619 104.795C126.698 106.004 125.792 107.323 125.546 108.843C125.322 110.209 125.654 111.636 125.2 112.948C124.88 113.86 124.221 114.587 123.667 115.364C122.459 117.081 121.729 119.089 121.555 121.182C121.492 121.636 121.538 122.099 121.69 122.532C122.198 123.691 123.741 123.553 124.928 123.243C126.259 122.891 127.69 122.459 128.602 121.307C129.754 119.857 129.725 117.755 129.725 116.007C129.725 113.921 129.306 111.822 129.786 109.732C130.122 108.27 131.002 107.492 132.096 106.683C133.533 105.604 135.51 104.615 136.784 105.748C137.267 106.253 137.586 106.892 137.699 107.582C137.982 108.934 137.968 110.332 137.658 111.678C137.348 113.024 136.75 114.288 135.904 115.38Z" fill="#007FFF"/>
<path opacity="0.6" d="M135.904 115.38C135.085 116.417 134.045 117.271 133.462 118.475C132.845 119.755 132.822 121.236 132.342 122.571C131.616 124.555 129.878 126.004 128.019 126.644C126.16 127.284 124.198 127.204 122.33 126.871C121.03 126.641 119.341 126.478 118.81 128.033C118.738 128.246 118.695 128.468 118.682 128.692C118.682 128.804 118.682 128.919 118.666 129.031C118.621 130.631 117.386 131.937 115.936 131.937H111.258C110.798 131.932 110.349 131.794 109.966 131.539C109.582 131.285 109.281 130.925 109.098 130.503C108.553 129.301 108.307 127.984 108.382 126.665C108.456 125.347 108.849 124.066 109.526 122.932C110.029 122.135 110.669 121.435 111.094 120.59C111.91 118.971 111.837 117.031 111.43 115.316C110.509 111.438 108.032 108.174 107.59 104.164C107.453 102.945 107.536 101.604 108.198 100.561C108.766 99.7227 109.606 99.1066 110.576 98.817C112.054 98.3402 113.846 98.609 114.624 99.9818C115.526 101.582 114.694 103.729 114.701 105.655C114.689 107.157 115.263 108.605 116.301 109.691C116.883 110.27 117.706 110.702 118.49 110.414C118.977 110.185 119.39 109.825 119.683 109.374C120.814 107.842 121.498 106.026 121.661 104.129C121.805 102.411 121.507 100.718 121.44 99.009C121.306 95.0034 122.396 91.0521 124.563 87.681C126.651 84.4088 129.756 81.9137 133.402 80.5802C134.698 80.1258 136.259 79.9114 137.194 80.9002C137.693 81.425 137.907 82.1802 138.035 82.9514C138.707 86.9994 137.248 91.3002 135.094 94.8746C132.941 98.449 130.122 101.489 127.619 104.795C126.698 106.004 125.792 107.323 125.546 108.843C125.322 110.209 125.654 111.636 125.2 112.948C124.88 113.86 124.221 114.587 123.667 115.364C122.459 117.081 121.729 119.089 121.555 121.182C121.492 121.636 121.538 122.099 121.69 122.532C122.198 123.691 123.741 123.553 124.928 123.243C126.259 122.891 127.69 122.459 128.602 121.307C129.754 119.857 129.725 117.755 129.725 116.007C129.725 113.921 129.306 111.822 129.786 109.732C130.122 108.27 131.002 107.492 132.096 106.683C133.533 105.604 135.51 104.615 136.784 105.748C137.267 106.253 137.586 106.892 137.699 107.582C137.982 108.934 137.968 110.332 137.658 111.678C137.348 113.024 136.75 114.288 135.904 115.38Z" fill="white"/>
<path d="M57.7669 125.146C57.6709 125.572 57.4469 125.924 57.4853 126.426C57.5237 126.929 57.8053 127.559 57.9109 128.106C57.9926 128.432 57.9593 128.777 57.8164 129.081C57.6736 129.386 57.43 129.631 57.1269 129.777C56.5573 130.039 55.8021 130.004 55.0309 129.87C54.4933 129.774 53.8245 129.706 53.9397 130.346C53.9587 130.439 53.9877 130.529 54.0261 130.615C54.0485 130.663 54.0677 130.708 54.0901 130.753C54.4101 131.393 54.2117 131.946 53.6645 131.946H51.9109C51.4776 131.904 51.0785 131.693 50.8005 131.358C49.9237 130.417 49.3285 129.178 49.3957 128.254C49.4524 127.936 49.4877 127.616 49.5013 127.294C49.4757 126.628 49.0469 125.834 48.5413 125.13C47.3925 123.53 45.7861 122.202 44.7877 120.558C44.4804 120.123 44.3019 119.611 44.2725 119.079C44.2843 118.922 44.3409 118.771 44.4355 118.644C44.5302 118.518 44.659 118.421 44.8069 118.366C45.1161 118.268 45.4467 118.261 45.7597 118.346C46.0727 118.43 46.355 118.603 46.5733 118.842C47.2421 119.482 47.3733 120.378 47.7733 121.169C48.1172 121.825 48.6104 122.392 49.2133 122.823C49.5525 123.06 49.9525 123.239 50.1893 123.121C50.2571 123.071 50.3133 123.008 50.3537 122.934C50.3941 122.86 50.4177 122.779 50.4229 122.695C50.5153 121.961 50.3977 121.215 50.0837 120.545C49.7829 119.838 49.3189 119.143 48.9413 118.442C48.0677 116.826 47.6453 115.156 47.7701 113.793C47.8949 112.43 48.5605 111.383 49.6293 110.881C49.8651 110.758 50.1309 110.706 50.3955 110.729C50.6602 110.752 50.9128 110.85 51.1237 111.012C51.418 111.246 51.6683 111.531 51.8629 111.854C52.8224 113.297 53.2976 115.008 53.2197 116.74C53.1493 118.206 52.7173 119.454 52.4549 120.807C52.3155 121.354 52.3355 121.929 52.5125 122.465C52.7109 123.025 53.1301 123.61 53.2293 124.148C53.2649 124.481 53.2388 124.817 53.1525 125.14C53.0703 125.957 53.2107 126.781 53.5589 127.524C53.6348 127.725 53.7429 127.912 53.8789 128.078C54.0488 128.26 54.2707 128.386 54.5146 128.438C54.7584 128.49 55.0124 128.466 55.2421 128.369C55.6709 128.225 56.1189 128.049 56.2277 127.575C56.3589 126.983 55.9077 126.119 55.5557 125.406C55.1237 124.548 54.5317 123.687 54.2757 122.83C54.2006 122.619 54.1832 122.392 54.2254 122.173C54.2676 121.953 54.3678 121.749 54.5157 121.582C54.8357 121.137 55.3733 120.734 56.0869 121.198C56.3717 121.402 56.6168 121.657 56.8101 121.95C57.6005 123.022 57.9621 124.266 57.7669 125.146Z" fill="#007FFF"/>
<path opacity="0.8" d="M57.7669 125.146C57.6709 125.572 57.4469 125.924 57.4853 126.426C57.5237 126.929 57.8053 127.559 57.9109 128.106C57.9926 128.432 57.9593 128.777 57.8164 129.081C57.6736 129.386 57.43 129.631 57.1269 129.777C56.5573 130.039 55.8021 130.004 55.0309 129.87C54.4933 129.774 53.8245 129.706 53.9397 130.346C53.9587 130.439 53.9877 130.529 54.0261 130.615C54.0485 130.663 54.0677 130.708 54.0901 130.753C54.4101 131.393 54.2117 131.946 53.6645 131.946H51.9109C51.4776 131.904 51.0785 131.693 50.8005 131.358C49.9237 130.417 49.3285 129.178 49.3957 128.254C49.4524 127.936 49.4877 127.616 49.5013 127.294C49.4757 126.628 49.0469 125.834 48.5413 125.13C47.3925 123.53 45.7861 122.202 44.7877 120.558C44.4804 120.123 44.3019 119.611 44.2725 119.079C44.2843 118.922 44.3409 118.771 44.4355 118.644C44.5302 118.518 44.659 118.421 44.8069 118.366C45.1161 118.268 45.4467 118.261 45.7597 118.346C46.0727 118.43 46.355 118.603 46.5733 118.842C47.2421 119.482 47.3733 120.378 47.7733 121.169C48.1172 121.825 48.6104 122.392 49.2133 122.823C49.5525 123.06 49.9525 123.239 50.1893 123.121C50.2571 123.071 50.3133 123.008 50.3537 122.934C50.3941 122.86 50.4177 122.779 50.4229 122.695C50.5153 121.961 50.3977 121.215 50.0837 120.545C49.7829 119.838 49.3189 119.143 48.9413 118.442C48.0677 116.826 47.6453 115.156 47.7701 113.793C47.8949 112.43 48.5605 111.383 49.6293 110.881C49.8651 110.758 50.1309 110.706 50.3955 110.729C50.6602 110.752 50.9128 110.85 51.1237 111.012C51.418 111.246 51.6683 111.531 51.8629 111.854C52.8224 113.297 53.2976 115.008 53.2197 116.74C53.1493 118.206 52.7173 119.454 52.4549 120.807C52.3155 121.354 52.3355 121.929 52.5125 122.465C52.7109 123.025 53.1301 123.61 53.2293 124.148C53.2649 124.481 53.2388 124.817 53.1525 125.14C53.0703 125.957 53.2107 126.781 53.5589 127.524C53.6348 127.725 53.7429 127.912 53.8789 128.078C54.0488 128.26 54.2707 128.386 54.5146 128.438C54.7584 128.49 55.0124 128.466 55.2421 128.369C55.6709 128.225 56.1189 128.049 56.2277 127.575C56.3589 126.983 55.9077 126.119 55.5557 125.406C55.1237 124.548 54.5317 123.687 54.2757 122.83C54.2006 122.619 54.1832 122.392 54.2254 122.173C54.2676 121.953 54.3678 121.749 54.5157 121.582C54.8357 121.137 55.3733 120.734 56.0869 121.198C56.3717 121.402 56.6168 121.657 56.8101 121.95C57.6005 123.022 57.9621 124.266 57.7669 125.146Z" fill="white"/>
<path d="M84.1124 117.473C84.3716 119.514 85.9972 121.06 87.3764 122.593C88.7556 124.125 90.0388 126.151 89.418 128.116C89.2309 128.638 88.9771 129.134 88.6628 129.591C88.5156 129.821 88.4328 130.087 88.4232 130.36C88.4137 130.633 88.4776 130.904 88.6084 131.144C88.7392 131.384 88.932 131.584 89.1668 131.724C89.4015 131.864 89.6695 131.939 89.9428 131.94H93.9236C94.239 131.94 94.5468 131.843 94.8047 131.661C95.0626 131.48 95.2578 131.222 95.3636 130.925C95.914 129.364 95.5524 127.405 94.8516 125.825C93.8916 123.69 92.458 121.703 92.2308 119.38C91.9108 116.135 94.074 113.156 96.5284 111.009C98.9828 108.861 101.869 107.149 103.85 104.561C105.53 102.372 106.452 99.6933 108.01 97.4213C109.44 95.3445 111.373 93.6517 112.762 91.5493C115.847 86.8677 115.7 80.2789 112.41 75.7413C111.789 74.8837 110.708 74.0229 109.783 74.5381C109.426 74.7661 109.166 75.1184 109.053 75.5269C108.413 77.4725 109.895 79.3925 110.599 81.3125C111.632 84.1381 110.944 87.3925 109.341 89.9525C107.738 92.5125 105.312 94.4325 102.762 96.0325C99.802 97.8821 96.3364 99.6709 95.2676 102.993C94.9476 104.017 94.874 105.108 94.5732 106.141C94.044 107.935 92.8394 109.452 91.2132 110.375C90.0484 111.015 88.7236 111.335 87.5332 111.949C85.4788 112.961 83.8212 115.172 84.1124 117.473Z" fill="#007FFF"/>
<path opacity="0.7" d="M84.1124 117.473C84.3716 119.514 85.9972 121.06 87.3764 122.593C88.7556 124.125 90.0388 126.151 89.418 128.116C89.2309 128.638 88.9771 129.134 88.6628 129.591C88.5156 129.821 88.4328 130.087 88.4232 130.36C88.4137 130.633 88.4776 130.904 88.6084 131.144C88.7392 131.384 88.932 131.584 89.1668 131.724C89.4015 131.864 89.6695 131.939 89.9428 131.94H93.9236C94.239 131.94 94.5468 131.843 94.8047 131.661C95.0626 131.48 95.2578 131.222 95.3636 130.925C95.914 129.364 95.5524 127.405 94.8516 125.825C93.8916 123.69 92.458 121.703 92.2308 119.38C91.9108 116.135 94.074 113.156 96.5284 111.009C98.9828 108.861 101.869 107.149 103.85 104.561C105.53 102.372 106.452 99.6933 108.01 97.4213C109.44 95.3445 111.373 93.6517 112.762 91.5493C115.847 86.8677 115.7 80.2789 112.41 75.7413C111.789 74.8837 110.708 74.0229 109.783 74.5381C109.426 74.7661 109.166 75.1184 109.053 75.5269C108.413 77.4725 109.895 79.3925 110.599 81.3125C111.632 84.1381 110.944 87.3925 109.341 89.9525C107.738 92.5125 105.312 94.4325 102.762 96.0325C99.802 97.8821 96.3364 99.6709 95.2676 102.993C94.9476 104.017 94.874 105.108 94.5732 106.141C94.044 107.935 92.8394 109.452 91.2132 110.375C90.0484 111.015 88.7236 111.335 87.5332 111.949C85.4788 112.961 83.8212 115.172 84.1124 117.473Z" fill="white"/>
<path d="M80.6397 118.25C80.2845 120.215 81.3853 122.106 82.1213 123.962C82.8573 125.818 83.0813 128.285 81.4813 129.492C81.0717 129.812 80.5693 129.997 80.2237 130.381C79.6253 131.057 79.6989 132.132 80.1629 132.909C80.1629 132.935 80.1917 132.961 80.2109 132.986C80.3075 133.131 80.3626 133.3 80.3704 133.475C80.3781 133.649 80.3382 133.822 80.255 133.975C80.1717 134.129 80.0483 134.257 79.8979 134.345C79.7475 134.433 79.5758 134.479 79.4013 134.477H66.2173C65.9834 134.482 65.7559 134.401 65.5773 134.25C63.6125 132.573 61.7661 130.612 61.5485 128.103C61.3661 126.013 62.4061 123.969 63.8653 122.465C64.7965 121.505 65.9613 120.609 66.2109 119.297C66.4733 117.901 65.5709 116.548 64.5309 115.585C62.5309 113.741 59.9165 112.73 57.6733 111.191C55.4301 109.652 53.4397 107.201 53.7853 104.49C54.0477 102.381 55.6861 100.689 57.4813 99.5493C58.5501 98.8709 59.7565 98.3173 61.0429 98.4869C61.4927 98.5304 61.9229 98.6922 62.29 98.9558C62.657 99.2194 62.9477 99.5754 63.1325 99.9877C63.8429 101.735 62.0829 103.466 61.8525 105.325C61.6221 107.124 62.8765 108.81 64.3773 109.831C65.8781 110.852 67.6413 111.399 69.2157 112.295C70.7901 113.191 72.2621 114.605 72.4541 116.41C72.5538 117.391 72.2655 118.372 71.6509 119.143C70.5469 120.519 67.9517 121.383 67.9741 123.421C67.9933 125.111 69.5741 126.794 70.9309 127.633C72.2877 128.471 74.0541 128.842 75.5965 128.202C77.1389 127.562 77.8013 125.713 78.0253 124.209C78.4125 121.649 77.2029 119.498 76.2269 117.217C75.3949 115.277 74.3581 112.737 75.4685 110.701C75.5415 110.566 75.6239 110.435 75.7149 110.311C76.0641 109.807 76.5265 109.393 77.0651 109.1C77.6036 108.808 78.2032 108.646 78.8157 108.628C81.1677 108.628 83.1549 111.117 82.7101 113.428C82.3677 115.149 80.9597 116.522 80.6397 118.25Z" fill="#007FFF"/>
<path opacity="0.4" d="M80.6397 118.25C80.2845 120.215 81.3853 122.106 82.1213 123.962C82.8573 125.818 83.0813 128.285 81.4813 129.492C81.0717 129.812 80.5693 129.997 80.2237 130.381C79.6253 131.057 79.6989 132.132 80.1629 132.909C80.1629 132.935 80.1917 132.961 80.2109 132.986C80.3075 133.131 80.3626 133.3 80.3704 133.475C80.3781 133.649 80.3382 133.822 80.255 133.975C80.1717 134.129 80.0483 134.257 79.8979 134.345C79.7475 134.433 79.5758 134.479 79.4013 134.477H66.2173C65.9834 134.482 65.7559 134.401 65.5773 134.25C63.6125 132.573 61.7661 130.612 61.5485 128.103C61.3661 126.013 62.4061 123.969 63.8653 122.465C64.7965 121.505 65.9613 120.609 66.2109 119.297C66.4733 117.901 65.5709 116.548 64.5309 115.585C62.5309 113.741 59.9165 112.73 57.6733 111.191C55.4301 109.652 53.4397 107.201 53.7853 104.49C54.0477 102.381 55.6861 100.689 57.4813 99.5493C58.5501 98.8709 59.7565 98.3173 61.0429 98.4869C61.4927 98.5304 61.9229 98.6922 62.29 98.9558C62.657 99.2194 62.9477 99.5754 63.1325 99.9877C63.8429 101.735 62.0829 103.466 61.8525 105.325C61.6221 107.124 62.8765 108.81 64.3773 109.831C65.8781 110.852 67.6413 111.399 69.2157 112.295C70.7901 113.191 72.2621 114.605 72.4541 116.41C72.5538 117.391 72.2655 118.372 71.6509 119.143C70.5469 120.519 67.9517 121.383 67.9741 123.421C67.9933 125.111 69.5741 126.794 70.9309 127.633C72.2877 128.471 74.0541 128.842 75.5965 128.202C77.1389 127.562 77.8013 125.713 78.0253 124.209C78.4125 121.649 77.2029 119.498 76.2269 117.217C75.3949 115.277 74.3581 112.737 75.4685 110.701C75.5415 110.566 75.6239 110.435 75.7149 110.311C76.0641 109.807 76.5265 109.393 77.0651 109.1C77.6036 108.808 78.2032 108.646 78.8157 108.628C81.1677 108.628 83.1549 111.117 82.7101 113.428C82.3677 115.149 80.9597 116.522 80.6397 118.25Z" fill="white"/>
<path d="M39.5844 132.362C39.4249 132.622 39.2001 132.836 38.9324 132.983C38.6646 133.129 38.3632 133.203 38.058 133.197H30.5188C27.4148 133.197 25.2804 130.026 29.3348 128.106C33.0084 126.369 41.178 129.601 39.5844 132.362Z" fill="#007FFF"/>
<path opacity="0.2" d="M39.5844 132.362C39.4249 132.622 39.2001 132.836 38.9324 132.983C38.6646 133.129 38.3632 133.203 38.058 133.197H30.5188C27.4148 133.197 25.2804 130.026 29.3348 128.106C33.0084 126.369 41.178 129.601 39.5844 132.362Z" fill="white"/>
<path opacity="0.4" d="M37.2006 129.684C37.1014 129.924 36.5606 129.934 35.9846 129.703C35.4086 129.473 35.0246 129.092 35.1366 128.852C35.2486 128.612 35.7766 128.603 36.3526 128.833C36.9286 129.063 37.303 129.444 37.2006 129.684Z" fill="white"/>
<path opacity="0.4" d="M38.2142 130.819C38.1534 130.947 37.8942 130.973 37.6702 130.874C37.4462 130.775 37.283 130.586 37.3502 130.458C37.4174 130.33 37.6702 130.307 37.8942 130.407C38.1182 130.506 38.275 130.691 38.2142 130.819Z" fill="white"/>
<path opacity="0.4" d="M36.6791 130.608C36.6343 130.708 36.4839 130.736 36.3399 130.676C36.1959 130.615 36.1159 130.487 36.1575 130.391C36.1964 130.34 36.2528 130.304 36.3159 130.292C36.379 130.28 36.4445 130.291 36.4999 130.324C36.6439 130.384 36.7239 130.512 36.6791 130.608Z" fill="white"/>
<path d="M38.4639 133.959C38.5207 134.131 38.6279 134.282 38.7717 134.393C38.9155 134.504 39.0892 134.569 39.2703 134.579H43.2543C44.8959 134.579 46.0223 132.208 43.8943 130.775C41.9391 129.472 37.6223 131.895 38.4639 133.959Z" fill="#007FFF"/>
<path opacity="0.4" d="M38.4639 133.959C38.5207 134.131 38.6279 134.282 38.7717 134.393C38.9155 134.504 39.0892 134.569 39.2703 134.579H43.2543C44.8959 134.579 46.0223 132.208 43.8943 130.775C41.9391 129.472 37.6223 131.895 38.4639 133.959Z" fill="white"/>
<path d="M99.4239 133.322C100.147 134.119 101.066 134.567 101.808 134.567H110.886C114.627 134.567 115.123 129.841 108.986 126.98C103.424 124.385 95.7055 129.213 99.4239 133.322Z" fill="#007FFF"/>
<path opacity="0.4" d="M99.4239 133.322C100.147 134.119 101.066 134.567 101.808 134.567H110.886C114.627 134.567 115.123 129.841 108.986 126.98C103.424 124.385 95.7055 129.213 99.4239 133.322Z" fill="white"/>
<path opacity="0.4" d="M103.31 127.543C103.47 127.834 103.098 128.349 102.481 128.688C101.863 129.028 101.226 129.069 101.066 128.778C100.906 128.487 101.278 127.972 101.895 127.632C102.513 127.293 103.146 127.252 103.31 127.543Z" fill="white"/>
<path opacity="0.4" d="M104.961 127.978C105.022 128.151 104.839 128.368 104.554 128.471C104.27 128.573 103.994 128.512 103.934 128.343C103.873 128.173 104.055 127.952 104.337 127.85C104.618 127.747 104.897 127.808 104.961 127.978Z" fill="white"/>
<path d="M92.7234 132.266C92.5892 132.525 92.3919 132.746 92.1497 132.909C91.9076 133.071 91.6283 133.171 91.3378 133.197H85.3986C82.9506 133.197 81.9778 129.661 85.6002 127.52C88.8802 125.581 94.5954 129.191 92.7234 132.266Z" fill="#007FFF"/>
<path opacity="0.1" d="M92.7234 132.266C92.5892 132.525 92.3919 132.746 92.1497 132.909C91.9076 133.071 91.6283 133.171 91.3378 133.197H85.3986C82.9506 133.197 81.9778 129.661 85.6002 127.52C88.8802 125.581 94.5954 129.191 92.7234 132.266Z" fill="white"/>
<path opacity="0.3" d="M21.4115 110.003C21.407 110.147 21.3597 110.288 21.2755 110.406C21.1913 110.524 21.0741 110.614 20.9385 110.665C20.803 110.717 20.6553 110.726 20.5142 110.694C20.373 110.661 20.2446 110.588 20.1453 110.482C20.046 110.376 19.9803 110.244 19.9564 110.101C19.9324 109.958 19.9514 109.811 20.0109 109.679C20.0704 109.547 20.1677 109.435 20.2906 109.359C20.4134 109.282 20.5563 109.243 20.7011 109.247C20.7974 109.25 20.8921 109.272 20.9799 109.312C21.0677 109.351 21.1469 109.408 21.2128 109.478C21.2788 109.548 21.3303 109.63 21.3644 109.72C21.3985 109.81 21.4145 109.906 21.4115 110.003Z" fill="#007FFF"/>
<path opacity="0.3" d="M30.8129 87.9674C30.8084 88.1123 30.7611 88.2525 30.6769 88.3705C30.5927 88.4884 30.4754 88.5787 30.3399 88.63C30.2044 88.6813 30.0567 88.6913 29.9155 88.6587C29.7743 88.6261 29.646 88.5524 29.5467 88.4468C29.4474 88.3413 29.3816 88.2086 29.3577 88.0657C29.3338 87.9228 29.3528 87.776 29.4123 87.6439C29.4717 87.5118 29.5691 87.4002 29.6919 87.3234C29.8148 87.2466 29.9577 87.2079 30.1025 87.2122C30.2966 87.2189 30.4802 87.3021 30.6133 87.4435C30.7463 87.585 30.8181 87.7733 30.8129 87.9674Z" fill="#007FFF"/>
<path opacity="0.3" d="M33.0529 103.655C33.763 102.986 33.7964 101.868 33.1274 101.158C32.4585 100.448 31.3406 100.415 30.6305 101.084C29.9204 101.753 29.887 102.871 30.5559 103.581C31.2249 104.291 32.3428 104.324 33.0529 103.655Z" fill="#007FFF"/>
<path opacity="0.3" d="M83.5204 104.595C83.5107 104.944 83.3976 105.283 83.1953 105.568C82.9931 105.853 82.7108 106.072 82.3841 106.196C82.0575 106.321 81.7013 106.346 81.3605 106.268C81.0198 106.19 80.7098 106.012 80.4699 105.758C80.23 105.504 80.0709 105.184 80.0128 104.839C79.9548 104.495 80.0002 104.14 80.1436 103.822C80.2869 103.503 80.5216 103.234 80.8179 103.048C81.1143 102.863 81.459 102.769 81.8084 102.78C82.2758 102.794 82.7185 102.993 83.0394 103.333C83.3604 103.674 83.5333 104.127 83.5204 104.595Z" fill="#007FFF"/>
<path opacity="0.3" d="M24.5527 107.715C24.5501 107.794 24.5242 107.87 24.4781 107.935C24.4321 107.999 24.368 108.048 24.294 108.076C24.22 108.104 24.1394 108.109 24.0623 108.091C23.9853 108.073 23.9153 108.033 23.8612 107.975C23.8071 107.918 23.7713 107.845 23.7583 107.767C23.7454 107.689 23.7558 107.609 23.7884 107.537C23.821 107.465 23.8742 107.404 23.9413 107.362C24.0084 107.32 24.0865 107.299 24.1655 107.302C24.2181 107.304 24.2698 107.316 24.3177 107.337C24.3656 107.359 24.4087 107.39 24.4447 107.428C24.4806 107.466 24.5087 107.511 24.5272 107.561C24.5458 107.61 24.5544 107.662 24.5527 107.715Z" fill="#007FFF"/>
<path opacity="0.3" d="M87.1938 103.533C87.1893 103.678 87.1419 103.818 87.0577 103.936C86.9735 104.054 86.8563 104.144 86.7208 104.195C86.5852 104.247 86.4376 104.257 86.2964 104.224C86.1552 104.192 86.0268 104.118 85.9276 104.012C85.8283 103.907 85.7625 103.774 85.7386 103.631C85.7146 103.488 85.7336 103.341 85.7931 103.209C85.8526 103.077 85.9499 102.966 86.0728 102.889C86.1956 102.812 86.3385 102.773 86.4834 102.778C86.5796 102.781 86.6743 102.802 86.7621 102.842C86.8499 102.881 86.9291 102.938 86.9951 103.008C87.061 103.078 87.1126 103.161 87.1466 103.251C87.1807 103.341 87.1968 103.437 87.1938 103.533Z" fill="#007FFF"/>
<path opacity="0.3" d="M94.2108 95.7756C94.2076 95.8545 94.1811 95.9306 94.1347 95.9945C94.0883 96.0584 94.024 96.1071 93.95 96.1345C93.8759 96.1619 93.7954 96.1668 93.7186 96.1485C93.6418 96.1303 93.5721 96.0897 93.5183 96.0319C93.4645 95.9741 93.4291 95.9017 93.4163 95.8238C93.4036 95.7458 93.4143 95.6659 93.4469 95.594C93.4796 95.5221 93.5327 95.4615 93.5998 95.4198C93.6668 95.3781 93.7447 95.3571 93.8236 95.3596C93.8766 95.3608 93.9287 95.3726 93.977 95.3943C94.0254 95.416 94.0688 95.4471 94.1049 95.4859C94.141 95.5247 94.169 95.5703 94.1872 95.62C94.2053 95.6698 94.2134 95.7227 94.2108 95.7756Z" fill="#007FFF"/>
<path opacity="0.3" d="M19.8174 100.62C19.8148 100.699 19.7888 100.776 19.7428 100.84C19.6968 100.904 19.6327 100.953 19.5587 100.981C19.4846 101.009 19.404 101.015 19.327 100.997C19.2499 100.979 19.1799 100.938 19.1258 100.881C19.0717 100.823 19.0359 100.751 19.023 100.673C19.01 100.595 19.0205 100.514 19.0531 100.442C19.0856 100.37 19.1388 100.309 19.206 100.268C19.2731 100.226 19.3511 100.205 19.4302 100.207C19.4827 100.209 19.5344 100.221 19.5823 100.243C19.6302 100.264 19.6734 100.295 19.7093 100.333C19.7453 100.372 19.7733 100.417 19.7919 100.466C19.8104 100.515 19.8191 100.567 19.8174 100.62Z" fill="#007FFF"/>
<path opacity="0.3" d="M144.439 102.128C144.435 102.273 144.388 102.414 144.304 102.533C144.219 102.652 144.102 102.743 143.966 102.796C143.83 102.848 143.681 102.858 143.539 102.826C143.397 102.793 143.268 102.719 143.168 102.614C143.068 102.508 143.001 102.374 142.977 102.231C142.953 102.087 142.972 101.94 143.031 101.807C143.091 101.674 143.189 101.562 143.312 101.484C143.436 101.407 143.579 101.368 143.725 101.372C143.92 101.378 144.104 101.461 144.238 101.603C144.372 101.744 144.444 101.933 144.439 102.128Z" fill="#007FFF"/>
<path opacity="0.3" d="M147.581 99.8397C147.578 99.9186 147.553 99.995 147.507 100.059C147.461 100.124 147.397 100.173 147.323 100.201C147.249 100.229 147.169 100.234 147.092 100.217C147.015 100.199 146.945 100.159 146.891 100.102C146.836 100.044 146.8 99.9721 146.787 99.8943C146.774 99.8164 146.784 99.7364 146.816 99.6643C146.848 99.5921 146.901 99.5311 146.967 99.4888C147.034 99.4466 147.112 99.425 147.191 99.4269C147.243 99.4281 147.295 99.4398 147.344 99.4613C147.392 99.4827 147.436 99.5135 147.472 99.5519C147.508 99.5903 147.537 99.6355 147.555 99.6849C147.574 99.7343 147.583 99.7869 147.581 99.8397Z" fill="#007FFF"/>
<path opacity="0.3" d="M142.845 92.745C142.842 92.8241 142.816 92.9006 142.77 92.9649C142.724 93.0292 142.66 93.0784 142.586 93.1063C142.512 93.1342 142.431 93.1395 142.354 93.1216C142.277 93.1037 142.207 93.0634 142.153 93.0057C142.099 92.948 142.063 92.8756 142.05 92.7975C142.037 92.7195 142.048 92.6394 142.08 92.5673C142.113 92.4952 142.166 92.4344 142.233 92.3926C142.3 92.3507 142.378 92.3297 142.458 92.3322C142.51 92.3339 142.562 92.3459 142.61 92.3675C142.658 92.3892 142.701 92.42 142.737 92.4584C142.773 92.4967 142.801 92.5418 142.819 92.591C142.838 92.6401 142.846 92.6925 142.845 92.745Z" fill="#007FFF"/>
<path opacity="0.3" d="M72.5443 97.3498C72.536 97.6332 72.4438 97.9077 72.2795 98.1387C72.1151 98.3697 71.886 98.5468 71.621 98.6476C71.3561 98.7484 71.0672 98.7683 70.7908 98.7049C70.5145 98.6416 70.2632 98.4977 70.0686 98.2915C69.8741 98.0853 69.745 97.8261 69.6978 97.5466C69.6505 97.267 69.6872 96.9798 69.8032 96.7211C69.9192 96.4624 70.1093 96.2439 70.3494 96.0933C70.5895 95.9426 70.8689 95.8665 71.1523 95.8746C71.3406 95.88 71.526 95.9224 71.6979 95.9995C71.8697 96.0766 72.0247 96.1867 72.154 96.3238C72.2833 96.4608 72.3843 96.6219 72.4513 96.7979C72.5182 96.974 72.5499 97.1615 72.5443 97.3498Z" fill="#007FFF"/>
<path opacity="0.3" d="M43.2925 90.9279C43.2772 91.4154 43.1176 91.8873 42.8341 92.2842C42.5506 92.6811 42.1558 92.985 41.6996 93.1576C41.2434 93.3302 40.7463 93.3637 40.2711 93.2539C39.7959 93.1441 39.3639 92.8959 39.0297 92.5407C38.6955 92.1854 38.474 91.7391 38.3934 91.2581C38.3127 90.7771 38.3764 90.283 38.5764 89.8381C38.7765 89.3933 39.1038 89.0178 39.5172 88.7589C39.9306 88.5001 40.4114 88.3696 40.8989 88.3839C41.2234 88.393 41.5429 88.4661 41.839 88.599C42.1351 88.7319 42.402 88.9221 42.6244 89.1584C42.8468 89.3948 43.0204 89.6728 43.135 89.9765C43.2497 90.2802 43.3032 90.6035 43.2925 90.9279Z" fill="#007FFF"/>
<path opacity="0.3" d="M124.093 75.5197C124.082 75.9052 123.957 76.2788 123.734 76.5932C123.51 76.9075 123.199 77.1486 122.838 77.2857C122.478 77.4229 122.085 77.4501 121.709 77.3638C121.333 77.2775 120.991 77.0817 120.727 76.8011C120.462 76.5204 120.287 76.1676 120.223 75.7873C120.159 75.407 120.21 75.0163 120.368 74.6646C120.526 74.313 120.785 74.0162 121.112 73.8118C121.439 73.6074 121.82 73.5047 122.205 73.5165C122.721 73.5324 123.209 73.7523 123.563 74.1278C123.917 74.5033 124.108 75.0039 124.093 75.5197Z" fill="#007FFF"/>
<path d="M73.7047 60.8483C73.7047 60.8483 70.6167 60.1891 69.6919 61.0275C68.6871 59.7795 63.3463 55.9491 60.5303 58.1891C60.9303 61.7667 67.4135 62.8451 69.0103 62.6691C69.1191 63.7955 71.5703 65.4179 71.5703 65.4179C71.5703 65.4179 71.4359 63.5715 71.0263 62.5379C72.4599 62.1507 73.7047 60.8483 73.7047 60.8483Z" fill="#007FFF"/>
<path d="M56.2717 53.85C56.2717 53.85 52.6749 52.0388 51.2253 52.57C50.4285 50.8964 45.1773 44.9412 40.8797 46.2724C40.0861 50.1668 47.7469 53.6484 49.7853 54.0484C49.5165 55.2676 51.9773 57.8596 51.9773 57.8596C51.9773 57.8596 52.4797 55.8724 52.3389 54.6596C54.2557 54.762 56.2717 53.85 56.2717 53.85Z" fill="#007FFF"/>
<path opacity="0.6" d="M56.2717 53.85C56.2717 53.85 52.6749 52.0388 51.2253 52.57C50.4285 50.8964 45.1773 44.9412 40.8797 46.2724C40.0861 50.1668 47.7469 53.6484 49.7853 54.0484C49.5165 55.2676 51.9773 57.8596 51.9773 57.8596C51.9773 57.8596 52.4797 55.8724 52.3389 54.6596C54.2557 54.762 56.2717 53.85 56.2717 53.85Z" fill="white"/>
<path d="M50.5593 41.8683C50.5593 41.8683 47.8809 38.3996 46.3673 38.2044C46.1977 36.2428 43.3753 28.0732 38.9817 27.2188C36.9465 30.4892 42.8217 37.5164 44.5497 38.8892C43.8937 39.9036 45.2825 43.542 45.2825 43.542C45.2825 43.542 46.4089 41.9227 46.6905 40.7035C47.8847 41.3575 49.2026 41.7543 50.5593 41.8683Z" fill="#007FFF"/>
<path d="M70.6333 39.1771C70.6333 39.1771 68.7997 38.7867 68.2525 39.2827C67.6541 38.5403 64.4829 36.2683 62.8125 37.5995C63.0493 39.7211 66.8989 40.3611 67.8461 40.2587C67.9101 40.9275 69.3661 41.8907 69.3661 41.8907C69.3274 41.3115 69.2199 40.739 69.0461 40.1851C69.6452 39.9747 70.1881 39.6299 70.6333 39.1771Z" fill="#007FFF"/>
<path d="M68.5656 33.9459C68.5656 33.9459 66.684 32.9859 66.0408 33.2867C65.5096 32.4035 62.4632 29.2707 60.5304 29.9875C60.5048 32.0483 64.4792 33.8691 65.4872 34.0739C65.4712 34.7139 66.8792 36.0803 66.8792 36.0803C66.9127 35.5122 66.8729 34.9422 66.7608 34.3843C67.3892 34.388 68.0089 34.2375 68.5656 33.9459Z" fill="#007FFF"/>
<path opacity="0.6" d="M68.5656 33.9459C68.5656 33.9459 66.684 32.9859 66.0408 33.2867C65.5096 32.4035 62.4632 29.2707 60.5304 29.9875C60.5048 32.0483 64.4792 33.8691 65.4872 34.0739C65.4712 34.7139 66.8792 36.0803 66.8792 36.0803C66.9127 35.5122 66.8729 34.9422 66.7608 34.3843C67.3892 34.388 68.0089 34.2375 68.5656 33.9459Z" fill="white"/>
<path d="M48.6398 25.4274C48.6398 25.4274 47.3406 23.1682 46.4702 22.9282C46.531 21.757 45.5486 16.7234 43.0366 15.8594C41.5998 17.6002 44.4478 22.2274 45.3566 23.1778C44.8862 23.7186 45.4046 25.9746 45.4046 25.9746C45.8335 25.5126 46.1915 24.9896 46.467 24.4226C47.1136 24.9048 47.8535 25.247 48.6398 25.4274Z" fill="#007FFF"/>
<path opacity="0.6" d="M48.6398 25.4274C48.6398 25.4274 47.3406 23.1682 46.4702 22.9282C46.531 21.757 45.5486 16.7234 43.0366 15.8594C41.5998 17.6002 44.4478 22.2274 45.3566 23.1778C44.8862 23.7186 45.4046 25.9746 45.4046 25.9746C45.8335 25.5126 46.1915 24.9896 46.467 24.4226C47.1136 24.9048 47.8535 25.247 48.6398 25.4274Z" fill="white"/>
<path d="M46.7198 57.4719C46.7198 57.4719 44.7998 57.0655 44.2334 57.5839C43.6094 56.8095 40.3006 54.4383 38.5566 55.8271C38.8062 58.0415 42.8222 58.7071 43.811 58.6047C43.8782 59.2991 45.411 60.3071 45.411 60.3071C45.3689 59.7019 45.2561 59.1037 45.075 58.5247C45.6959 58.3027 46.2583 57.9428 46.7198 57.4719Z" fill="#007FFF"/>
<path opacity="0.3" d="M46.7198 57.4719C46.7198 57.4719 44.7998 57.0655 44.2334 57.5839C43.6094 56.8095 40.3006 54.4383 38.5566 55.8271C38.8062 58.0415 42.8222 58.7071 43.811 58.6047C43.8782 59.2991 45.411 60.3071 45.411 60.3071C45.3689 59.7019 45.2561 59.1037 45.075 58.5247C45.6959 58.3027 46.2583 57.9428 46.7198 57.4719Z" fill="white"/>
<path d="M38.2485 49.8722C38.2485 49.8722 36.2837 48.8834 35.6117 49.1874C35.0581 48.2658 31.8805 44.9954 29.8517 45.7442C29.8261 47.8946 33.9701 49.7922 35.0261 50.0066C35.0069 50.6786 36.4757 52.1026 36.4757 52.1026C36.511 51.51 36.4701 50.9153 36.3541 50.333C37.0137 50.3368 37.6643 50.1786 38.2485 49.8722Z" fill="#007FFF"/>
<path d="M33.5992 55.2096C33.5992 55.2096 31.4584 53.9296 30.54 54.1984C30.124 53.1296 27.148 49.2129 24.4312 49.8401C23.7592 52.2113 28.3352 54.72 29.5768 55.04C29.356 55.7824 30.7576 57.4944 30.7576 57.4944C30.9714 56.8587 31.0963 56.1964 31.1288 55.5265C31.9654 55.5925 32.8065 55.4846 33.5992 55.2096Z" fill="#007FFF"/>
<path opacity="0.6" d="M33.5992 55.2096C33.5992 55.2096 31.4584 53.9296 30.54 54.1984C30.124 53.1296 27.148 49.2129 24.4312 49.8401C23.7592 52.2113 28.3352 54.72 29.5768 55.04C29.356 55.7824 30.7576 57.4944 30.7576 57.4944C30.9714 56.8587 31.0963 56.1964 31.1288 55.5265C31.9654 55.5925 32.8065 55.4846 33.5992 55.2096Z" fill="white"/>
<path d="M30.1177 40.8574C30.1177 40.8574 29.0297 40.451 28.6489 40.707C28.3481 40.2014 26.6073 38.5214 25.4489 39.187C25.4041 40.5118 27.7081 41.2478 28.2969 41.2702C28.2745 41.6862 29.0809 42.4062 29.0809 42.4062C29.109 42.0474 29.095 41.6865 29.0393 41.331C29.4305 41.2584 29.7996 41.0963 30.1177 40.8574Z" fill="#007FFF"/>
<path d="M69.3983 50.3872C69.3983 50.3872 66.2303 48.7872 65.1455 49.2832C64.2495 47.7952 59.1199 42.5152 55.8655 43.7216C55.8207 47.1936 62.5151 50.2592 64.2175 50.6048C64.1855 51.6928 66.5599 53.9904 66.5599 53.9904C66.5599 53.9904 66.6623 52.2176 66.3647 51.1296C67.4214 51.1339 68.463 50.879 69.3983 50.3872Z" fill="#007FFF"/>
<path opacity="0.3" d="M69.3983 50.3872C69.3983 50.3872 66.2303 48.7872 65.1455 49.2832C64.2495 47.7952 59.1199 42.5152 55.8655 43.7216C55.8207 47.1936 62.5151 50.2592 64.2175 50.6048C64.1855 51.6928 66.5599 53.9904 66.5599 53.9904C66.5599 53.9904 66.6623 52.2176 66.3647 51.1296C67.4214 51.1339 68.463 50.879 69.3983 50.3872Z" fill="black"/>
<path d="M57.8621 35.987C57.8621 35.987 55.8109 34.7582 54.9309 35.027C54.5309 34.003 51.6797 30.2494 49.0781 30.851C48.4381 33.123 52.8221 35.5166 54.0157 35.8398C53.8013 36.5502 55.1453 38.1918 55.1453 38.1918C55.3502 37.583 55.4697 36.9487 55.5005 36.307C56.3014 36.3647 57.1055 36.2558 57.8621 35.987Z" fill="#007FFF"/>
<path opacity="0.3" d="M57.8621 35.987C57.8621 35.987 55.8109 34.7582 54.9309 35.027C54.5309 34.003 51.6797 30.2494 49.0781 30.851C48.4381 33.123 52.8221 35.5166 54.0157 35.8398C53.8013 36.5502 55.1453 38.1918 55.1453 38.1918C55.3502 37.583 55.4697 36.9487 55.5005 36.307C56.3014 36.3647 57.1055 36.2558 57.8621 35.987Z" fill="black"/>
<path d="M26.2169 46.4387C26.2169 46.4387 24.2681 44.5443 23.3369 44.5507C23.0649 43.3603 20.6393 38.5891 17.8713 38.4355C16.9113 40.6179 21.0969 44.4291 22.2809 45.1235C21.9609 45.8019 23.1257 47.9171 23.1257 47.9171C23.4302 47.3315 23.6459 46.7038 23.7657 46.0547C24.547 46.3523 25.382 46.4831 26.2169 46.4387Z" fill="#007FFF"/>
<path opacity="0.3" d="M26.2169 46.4387C26.2169 46.4387 24.2681 44.5443 23.3369 44.5507C23.0649 43.3603 20.6393 38.5891 17.8713 38.4355C16.9113 40.6179 21.0969 44.4291 22.2809 45.1235C21.9609 45.8019 23.1257 47.9171 23.1257 47.9171C23.4302 47.3315 23.6459 46.7038 23.7657 46.0547C24.547 46.3523 25.382 46.4831 26.2169 46.4387Z" fill="black"/>
<path d="M37.3305 37.5621C37.3305 37.5621 36.1721 36.6565 35.6921 36.7685C35.4489 36.0901 33.7977 33.5301 32.3769 33.7541C32.0761 35.1589 34.5433 36.9541 35.2057 37.2261C35.1065 37.6677 35.8809 38.7909 35.8809 38.7909C35.9815 38.4075 36.0332 38.0129 36.0345 37.6165C36.4645 37.7032 36.9092 37.6846 37.3305 37.5621Z" fill="#007FFF"/>
<path opacity="0.3" d="M37.3305 37.5621C37.3305 37.5621 36.1721 36.6565 35.6921 36.7685C35.4489 36.0901 33.7977 33.5301 32.3769 33.7541C32.0761 35.1589 34.5433 36.9541 35.2057 37.2261C35.1065 37.6677 35.8809 38.7909 35.8809 38.7909C35.9815 38.4075 36.0332 38.0129 36.0345 37.6165C36.4645 37.7032 36.9092 37.6846 37.3305 37.5621Z" fill="black"/>
<path d="M35.7724 17.28C35.7724 17.28 35.2028 16.1056 34.7772 16C34.8476 15.36 34.5276 12.6752 33.3084 12.3008C32.518 13.3056 33.7884 15.696 34.2108 16.176C33.958 16.496 34.1404 17.6896 34.1404 17.6896C34.3693 17.4214 34.5638 17.1258 34.7196 16.8096C35.0266 17.0505 35.3882 17.2121 35.7724 17.28Z" fill="#007FFF"/>
<path opacity="0.3" d="M35.7724 17.28C35.7724 17.28 35.2028 16.1056 34.7772 16C34.8476 15.36 34.5276 12.6752 33.3084 12.3008C32.518 13.3056 33.7884 15.696 34.2108 16.176C33.958 16.496 34.1404 17.6896 34.1404 17.6896C34.3693 17.4214 34.5638 17.1258 34.7196 16.8096C35.0266 17.0505 35.3882 17.2121 35.7724 17.28Z" fill="black"/>
<path d="M27.2817 33.376C27.2817 33.376 26.1361 32.4416 25.5729 32.5216C25.4193 31.856 24.0081 29.3024 22.3729 29.4368C21.7777 30.7712 24.2513 32.6368 24.9489 32.9376C24.7569 33.3536 25.4321 34.48 25.4321 34.48C25.612 34.1251 25.7423 33.7471 25.8193 33.3568C26.3002 33.4634 26.798 33.47 27.2817 33.376Z" fill="#007FFF"/>
<path opacity="0.6" d="M27.2817 33.376C27.2817 33.376 26.1361 32.4416 25.5729 32.5216C25.4193 31.856 24.0081 29.3024 22.3729 29.4368C21.7777 30.7712 24.2513 32.6368 24.9489 32.9376C24.7569 33.3536 25.4321 34.48 25.4321 34.48C25.612 34.1251 25.7423 33.7471 25.8193 33.3568C26.3002 33.4634 26.798 33.47 27.2817 33.376Z" fill="white"/>
<path d="M32.4979 26.8546C32.4979 26.8546 31.2851 25.2546 30.6003 25.1746C30.5299 24.2818 29.2723 20.557 27.2787 20.1602C26.3443 21.6354 28.9843 24.8482 29.7587 25.4786C29.4387 25.9362 30.0787 27.597 30.0787 27.597C30.3532 27.2037 30.5688 26.7725 30.7187 26.317C31.2671 26.62 31.8735 26.8032 32.4979 26.8546Z" fill="#007FFF"/>
<path d="M102.762 35.6251L101.613 34.8795C101.174 34.6005 100.643 34.5066 100.135 34.6181C99.6269 34.7296 99.1839 35.0376 98.9023 35.4747L103.36 38.3355C103.639 37.8963 103.732 37.3647 103.62 36.8568C103.508 36.3489 103.199 35.9061 102.762 35.6251Z" fill="#263238"/>
<path d="M100.246 35.6176L102.672 37.1684C103.53 37.7168 104.136 38.5836 104.355 39.5782C104.574 40.5728 104.389 41.6137 103.84 42.4719L94.5647 56.9868C94.4022 57.2411 94.1913 57.4608 93.9439 57.6336C93.6965 57.8063 93.4175 57.9286 93.1228 57.9935C92.8282 58.0584 92.5236 58.0646 92.2265 58.0118C91.9295 57.959 91.6457 57.8482 91.3915 57.6857L86.3653 54.4738C85.8518 54.1457 85.4897 53.627 85.3587 53.0319C85.2276 52.4368 85.3383 51.814 85.6664 51.3005L94.942 36.7855C95.4904 35.9274 96.3573 35.3222 97.3519 35.1032C98.3465 34.8841 99.3873 35.0692 100.246 35.6176Z" fill="#007FFF"/>
<path opacity="0.6" d="M100.246 35.6176L102.672 37.1684C103.53 37.7168 104.136 38.5836 104.355 39.5782C104.574 40.5728 104.389 41.6137 103.84 42.4719L94.5647 56.9868C94.4022 57.2411 94.1913 57.4608 93.9439 57.6336C93.6965 57.8063 93.4175 57.9286 93.1228 57.9935C92.8282 58.0584 92.5236 58.0646 92.2265 58.0118C91.9295 57.959 91.6457 57.8482 91.3915 57.6857L86.3653 54.4738C85.8518 54.1457 85.4897 53.627 85.3587 53.0319C85.2276 52.4368 85.3383 51.814 85.6664 51.3005L94.942 36.7855C95.4904 35.9274 96.3573 35.3222 97.3519 35.1032C98.3465 34.8841 99.3873 35.0692 100.246 35.6176Z" fill="white"/>
<path opacity="0.5" d="M99.6263 49.0813C96.3767 47.6641 93.3712 45.7428 90.7207 43.3885L92.7559 40.1885C95.4075 42.5429 98.4141 44.4641 101.665 45.8813C100.984 46.9522 100.305 48.0189 99.6263 49.0813Z" fill="#007FFF"/>
<path d="M113.124 44.9987L113.181 45.6739L113.249 46.3875C113.3 46.8675 113.351 47.3475 113.412 47.8275C113.533 48.7875 113.661 49.7475 113.834 50.6915C114.146 52.5599 114.603 54.4012 115.201 56.1987C115.274 56.4195 115.357 56.6307 115.437 56.8387L115.559 57.1587L115.588 57.2387V57.2611V57.2355L115.562 57.1907C115.528 57.135 115.488 57.0825 115.444 57.0339C115.391 56.9684 115.326 56.9141 115.252 56.8739C115.21 56.8515 115.201 56.8739 115.207 56.8739C115.286 56.9317 115.375 56.974 115.469 56.9987C115.832 57.1009 116.204 57.1653 116.58 57.1907C117.005 57.2355 117.466 57.2515 117.933 57.2547C119.809 57.2547 121.831 57.0883 123.799 56.9347H123.841C124.135 56.9111 124.429 56.9934 124.668 57.1668C124.908 57.3402 125.077 57.5934 125.147 57.8807C125.216 58.1681 125.181 58.4708 125.047 58.7343C124.913 58.9979 124.69 59.2051 124.417 59.3187C123.434 59.7231 122.43 60.0735 121.409 60.3683C120.371 60.673 119.317 60.9146 118.25 61.0915C117.7 61.1747 117.14 61.2451 116.548 61.2803C115.907 61.3166 115.264 61.2887 114.628 61.1971C114.218 61.1383 113.816 61.0309 113.431 60.8771C113.183 60.7737 112.945 60.6473 112.721 60.4995C112.441 60.3095 112.189 60.0811 111.972 59.8211C111.85 59.6728 111.743 59.5131 111.652 59.3443L111.581 59.2131L111.537 59.1235L111.492 59.0307L111.309 58.6499C111.194 58.3971 111.066 58.1411 110.957 57.8851C110.105 55.8723 109.454 53.7799 109.015 51.6387C108.794 50.5827 108.612 49.5267 108.477 48.4643C108.407 47.9331 108.346 47.4019 108.301 46.8643C108.279 46.5955 108.257 46.3267 108.241 46.0547C108.225 45.7827 108.212 45.5235 108.199 45.2067C108.174 44.5582 108.405 43.9259 108.841 43.4453C109.277 42.9647 109.884 42.6742 110.532 42.6361C111.179 42.598 111.816 42.8153 112.306 43.2415C112.795 43.6676 113.098 44.2686 113.149 44.9155L113.124 44.9987Z" fill="#263238"/>
<path d="M123.946 56.9406L126.285 54.9854L127.207 58.4542C127.207 58.4542 125.037 59.6094 123.463 59.0366L123.444 58.0446C123.439 57.8346 123.482 57.6263 123.569 57.4351C123.656 57.2439 123.785 57.0749 123.946 56.9406Z" fill="#FFC3BD"/>
<path d="M129.316 55.5517L129.437 56.9085C129.454 57.1144 129.402 57.3201 129.289 57.4936C129.177 57.6671 129.011 57.7988 128.817 57.8685L127.217 58.4445L126.295 54.9757L128.253 54.6909C128.38 54.674 128.509 54.6831 128.632 54.7178C128.756 54.7524 128.87 54.8119 128.97 54.8924C129.069 54.973 129.151 55.073 129.211 55.1864C129.27 55.2997 129.306 55.424 129.316 55.5517Z" fill="#FFC3BD"/>
<path d="M80.7622 52.5083L78.8678 54.8923L77.2998 52.3323C77.2998 52.3323 79.1558 50.0923 80.8198 50.3451L81.0406 51.3051C81.0889 51.5136 81.089 51.7304 81.0407 51.9389C80.9925 52.1474 80.8972 52.3422 80.7622 52.5083Z" fill="#FFC3BD"/>
<path d="M76.0263 54.9441L75.7063 53.9393C75.6592 53.7839 75.6651 53.6171 75.723 53.4654C75.7809 53.3136 75.8876 53.1854 76.0263 53.1009L77.2775 52.3457L78.8455 54.9057L76.9063 55.4529C76.7223 55.4984 76.5278 55.4708 76.3638 55.3759C76.1997 55.281 76.0787 55.1263 76.0263 54.9441Z" fill="#FFC3BD"/>
<path d="M113.076 46.8412C112.596 48.1372 113.396 52.534 110.263 53.478C109.415 55.3244 107.022 59.43 104.142 63.0524L91.9082 56.1948C94.3434 53.03 95.7642 49.7692 96.7082 40.7356C96.7593 40.2414 96.9138 39.7635 97.1617 39.3329C97.4095 38.9023 97.7452 38.5286 98.1469 38.2362C98.5485 37.9437 99.0072 37.7391 99.4932 37.6355C99.9791 37.5319 100.481 37.5317 100.967 37.6348C101.518 37.7532 102.097 37.8876 102.683 38.0444C104.753 38.5449 106.785 39.193 108.763 39.9836C109.403 40.2524 110.043 40.5532 110.667 40.8508C111.741 41.3708 112.584 42.2727 113.029 43.3803C113.475 44.488 113.491 45.7219 113.076 46.8412Z" fill="#007FFF"/>
<path opacity="0.2" d="M100.66 41.1299C100.122 42.8099 97.706 44.8451 96.042 45.7283C96.2372 44.4931 96.3396 43.9491 96.5124 42.4611L100.66 41.1299Z" fill="black"/>
<path d="M105.3 30.7998C105.076 33.0878 104.34 37.5198 102.1 38.339C102.1 38.339 106.634 40.435 109.325 44.9086C112.042 42.7486 109.872 40.6174 109.872 40.6174C107.242 39.0974 107.911 37.3694 108.96 35.8878L105.3 30.7998Z" fill="#007FFF"/>
<path opacity="0.2" d="M106.791 32.877L108.951 35.8882C108.701 36.2269 108.486 36.5904 108.311 36.973C107.277 36.477 106.135 34.9858 106.339 34.0002C106.407 33.5974 106.561 33.2142 106.791 32.877Z" fill="black"/>
<path d="M104.16 26.934C104.042 30.358 104.119 32.0284 105.562 33.9932C107.735 36.9532 111.908 36.4988 113.159 33.222C114.282 30.2748 114.506 25.1804 111.434 23.3916C108.362 21.6028 104.279 23.5068 104.16 26.934Z" fill="#007FFF"/>
<path opacity="0.3" d="M116.935 31.4785C116.93 31.6231 116.882 31.763 116.797 31.8805C116.713 31.9981 116.595 32.0879 116.46 32.1387C116.324 32.1895 116.177 32.199 116.036 32.1661C115.895 32.1331 115.767 32.0591 115.668 31.9535C115.569 31.8478 115.503 31.7152 115.48 31.5724C115.456 31.4296 115.475 31.283 115.535 31.151C115.594 31.0191 115.691 30.9077 115.814 30.831C115.937 30.7543 116.08 30.7157 116.224 30.7201C116.321 30.7229 116.416 30.7449 116.504 30.7846C116.592 30.8243 116.671 30.8811 116.737 30.9516C116.803 31.022 116.855 31.1049 116.889 31.1953C116.923 31.2857 116.938 31.3819 116.935 31.4785Z" fill="#007FFF"/>
<path opacity="0.3" d="M123.412 14.6686C123.407 14.8135 123.36 14.9537 123.276 15.0716C123.191 15.1896 123.074 15.2799 122.939 15.3312C122.803 15.3825 122.655 15.3925 122.514 15.3599C122.373 15.3273 122.245 15.2535 122.145 15.148C122.046 15.0424 121.98 14.9098 121.956 14.7669C121.932 14.624 121.951 14.4772 122.011 14.3451C122.07 14.2129 122.168 14.1014 122.291 14.0246C122.413 13.9477 122.556 13.9091 122.701 13.9134C122.798 13.9159 122.892 13.9374 122.98 13.9768C123.068 14.0162 123.148 14.0727 123.214 14.1429C123.28 14.2131 123.331 14.2957 123.365 14.386C123.399 14.4762 123.415 14.5723 123.412 14.6686Z" fill="#007FFF"/>
<path opacity="0.3" d="M120.875 17.8338C120.865 18.1832 120.752 18.5219 120.55 18.807C120.348 19.0921 120.065 19.3108 119.739 19.4354C119.412 19.56 119.056 19.5848 118.715 19.5068C118.374 19.4288 118.064 19.2515 117.824 18.9972C117.585 18.743 117.425 18.4232 117.367 18.0785C117.309 17.7338 117.355 17.3796 117.498 17.0608C117.641 16.7419 117.876 16.4728 118.172 16.2874C118.469 16.102 118.813 16.0087 119.163 16.0194C119.394 16.026 119.622 16.0782 119.834 16.173C120.045 16.2678 120.236 16.4033 120.395 16.5718C120.554 16.7403 120.678 16.9385 120.76 17.155C120.843 17.3716 120.882 17.6022 120.875 17.8338Z" fill="#007FFF"/>
<path opacity="0.3" d="M120.077 29.1899C120.075 29.2687 120.05 29.3452 120.005 29.4098C119.96 29.4743 119.896 29.5241 119.823 29.5528C119.75 29.5815 119.669 29.5879 119.592 29.5711C119.515 29.5544 119.445 29.5152 119.39 29.4586C119.335 29.402 119.298 29.3304 119.284 29.2529C119.27 29.1754 119.279 29.0953 119.31 29.0229C119.341 28.9504 119.392 28.8887 119.458 28.8455C119.524 28.8024 119.602 28.7797 119.68 28.7803C119.734 28.7807 119.786 28.7917 119.835 28.8126C119.884 28.8334 119.928 28.8638 119.965 28.902C120.002 28.9401 120.031 28.9852 120.05 29.0346C120.069 29.084 120.078 29.1368 120.077 29.1899Z" fill="#007FFF"/>
<path opacity="0.3" d="M115.342 22.0956C115.339 22.1747 115.313 22.2512 115.267 22.3155C115.221 22.3798 115.157 22.429 115.083 22.4569C115.009 22.4848 114.928 22.4901 114.851 22.4722C114.774 22.4543 114.704 22.414 114.65 22.3563C114.596 22.2986 114.56 22.2261 114.547 22.1481C114.534 22.0701 114.545 21.99 114.577 21.9179C114.61 21.8458 114.663 21.785 114.73 21.7432C114.798 21.7013 114.876 21.6803 114.955 21.6828C115.007 21.6845 115.059 21.6965 115.107 21.7181C115.155 21.7398 115.198 21.7706 115.234 21.809C115.27 21.8473 115.298 21.8924 115.316 21.9415C115.335 21.9907 115.343 22.0431 115.342 22.0956Z" fill="#007FFF"/>
<path opacity="0.3" d="M119.251 25.3155C119.244 25.5991 119.152 25.8741 118.988 26.1056C118.824 26.337 118.595 26.5146 118.329 26.6158C118.064 26.7169 117.775 26.7371 117.499 26.6738C117.222 26.6105 116.97 26.4666 116.776 26.2602C116.581 26.0538 116.452 25.7942 116.405 25.5144C116.358 25.2346 116.395 24.9471 116.511 24.6883C116.627 24.4295 116.818 24.2111 117.059 24.0607C117.299 23.9103 117.579 23.8347 117.863 23.8435C118.241 23.856 118.6 24.0177 118.86 24.2935C119.12 24.5692 119.261 24.9365 119.251 25.3155Z" fill="#007FFF"/>
<path opacity="0.3" d="M125.226 22.2011C125.212 22.6897 125.053 23.1631 124.77 23.5614C124.486 23.9597 124.091 24.265 123.634 24.4387C123.178 24.6124 122.679 24.6467 122.203 24.5372C121.727 24.4277 121.294 24.1793 120.958 23.8236C120.623 23.4678 120.401 23.0206 120.32 22.5386C120.239 22.0565 120.303 21.5613 120.504 21.1156C120.704 20.6699 121.033 20.2937 121.447 20.0347C121.862 19.7756 122.344 19.6454 122.832 19.6603C123.156 19.6699 123.475 19.7432 123.771 19.876C124.067 20.0089 124.333 20.1987 124.556 20.4347C124.778 20.6707 124.952 20.9481 125.067 21.2512C125.182 21.5543 125.236 21.8771 125.226 22.2011Z" fill="#007FFF"/>
<path d="M107.453 27.7023C106.995 30.1119 106.979 31.5935 107.843 33.1071C109.146 35.3855 112.051 35.5935 113.117 33.3247C113.92 31.5999 114.743 27.4527 112.704 25.9199C110.666 24.3871 107.911 25.2959 107.453 27.7023Z" fill="#FFC3BD"/>
<path d="M104.094 28.2847C104.394 28.166 104.705 28.0749 105.022 28.0127C105.338 27.9477 105.659 27.9038 105.982 27.8815C106.308 27.8559 106.635 27.8559 106.961 27.8815C107.127 27.9007 107.281 27.9135 107.457 27.9455C107.541 27.9569 107.624 27.9729 107.706 27.9935C107.748 27.9992 107.789 28.0111 107.828 28.0287C107.852 28.0623 107.864 28.1027 107.863 28.1439C107.872 28.2226 107.872 28.302 107.863 28.3807C107.857 28.4987 107.826 28.6142 107.774 28.7199C107.742 28.792 107.704 28.8615 107.662 28.9279C107.644 28.9641 107.618 28.995 107.585 29.0175C107.546 29.0175 107.518 29.0175 107.482 29.0175C107.447 29.0175 107.345 28.9855 107.278 28.9727C107.14 28.9439 106.996 28.9215 106.855 28.8991C106.567 28.8575 106.276 28.8255 105.982 28.7935C105.687 28.7615 105.386 28.7423 105.082 28.7231C104.778 28.7039 104.471 28.6815 104.167 28.6495C104.118 28.6431 104.073 28.618 104.041 28.5793C104.009 28.5406 103.994 28.4913 103.998 28.4415C103.999 28.4094 104.009 28.3783 104.026 28.3509C104.042 28.3235 104.066 28.3007 104.094 28.2847Z" fill="#263238"/>
<path d="M67.8148 75.3498L68.2564 74.6298C67.2964 73.625 68.73 69.7018 65.3028 69.5994C62.282 69.5098 52.1828 70.6714 44.0036 69.0554C42.8804 68.8314 41.0212 69.225 41.6516 71.6506C42.474 74.8218 41.5845 78.7802 45.7476 79.8298C50.202 80.9562 56.3748 74.3258 65.466 76.2842C65.9061 76.383 66.3658 76.3467 66.7848 76.1799C67.2039 76.0132 67.5629 75.7239 67.8148 75.3498Z" fill="#007FFF"/>
<path d="M104.141 63.0401C104.141 63.0401 95.2354 83.1585 87.3858 91.8017C81.8242 101.251 65.2226 75.2001 65.2226 75.2001C59.0338 74.1089 58.5026 73.2801 65.1138 72.7681C66.0983 72.6906 67.0848 72.8902 67.9618 73.3441C71.2962 75.0817 79.8018 79.9201 82.2466 85.2033C86.4226 66.3009 93.4786 57.0625 93.4786 57.0625L104.141 63.0401Z" fill="#263238"/>
<path opacity="0.2" d="M73.5999 76.665C72.6015 78.473 71.5775 80.4602 70.5439 82.6458C72.0881 84.6454 73.7385 86.5607 75.4879 88.3834C77.8175 87.5962 79.3439 85.3594 80.6079 82.6234C78.7551 80.3962 76.0959 78.329 73.5999 76.665Z" fill="black"/>
<path opacity="0.2" d="M83.9912 78.3615C84.772 75.6799 85.5912 73.2575 86.4072 71.0879C87.1976 73.0431 86.8392 75.7215 83.9912 78.3615Z" fill="black"/>
<path d="M46.5475 99.4682L45.9779 98.8282C44.5891 99.2506 40.8259 97.1226 39.4243 99.9418C38.1891 102.428 36.3491 112.934 31.1043 116.975C30.9004 117.13 30.7404 117.336 30.6401 117.571C30.5398 117.807 30.5027 118.064 30.5324 118.319C30.5621 118.573 30.6577 118.815 30.8096 119.021C30.9615 119.227 31.1646 119.39 31.3987 119.494C34.6499 120.918 40.1315 122.639 42.7811 119.558C45.6163 116.265 41.1811 108.63 46.6211 101.775C46.8827 101.444 47.0187 101.031 47.0053 100.608C46.9918 100.186 46.8297 99.7825 46.5475 99.4682Z" fill="#007FFF"/>
<path d="M100.944 61.2609C100.944 61.2609 84.2497 75.6609 76.4961 83.0017C68.3521 90.6817 46.2913 100.899 45.6897 101.421C45.6897 101.421 42.3009 108.336 42.1857 105.277C42.1153 103.357 42.9857 101.52 43.6385 100.432C43.994 99.8523 44.4243 99.3219 44.9185 98.8545C47.7057 96.1857 59.9937 84.6817 69.7409 79.7505C82.5633 57.8977 91.9169 56.1953 91.9169 56.1953L100.944 61.2609Z" fill="#263238"/>
<path d="M109.245 28.7071C109.206 28.9823 109.321 29.2287 109.504 29.2511C109.686 29.2735 109.859 29.0719 109.897 28.7967C109.936 28.5215 109.817 28.2751 109.638 28.2527C109.459 28.2303 109.28 28.4319 109.245 28.7071Z" fill="#263238"/>
<path d="M112.641 29.2156C112.606 29.4908 112.721 29.734 112.9 29.7564C113.079 29.7788 113.259 29.5772 113.294 29.302C113.329 29.0268 113.217 28.7836 113.035 28.758C112.852 28.7324 112.67 28.9372 112.641 29.2156Z" fill="#263238"/>
<path d="M112.96 28.7645L113.648 28.6621C113.648 28.6621 113.222 29.1197 112.96 28.7645Z" fill="#263238"/>
<path d="M108.986 26.5981C109.009 26.6012 109.034 26.5994 109.057 26.5928C109.08 26.5862 109.101 26.575 109.12 26.5597C109.283 26.4359 109.474 26.352 109.675 26.3148C109.877 26.2775 110.085 26.288 110.282 26.3453C110.322 26.361 110.367 26.36 110.406 26.3426C110.446 26.3252 110.477 26.2928 110.493 26.2525C110.508 26.2122 110.507 26.1673 110.49 26.1277C110.473 26.0881 110.44 26.057 110.4 26.0413C110.152 25.9625 109.889 25.9443 109.633 25.9883C109.377 26.0322 109.135 26.1371 108.928 26.2941C108.91 26.3065 108.896 26.3223 108.884 26.3405C108.873 26.3587 108.866 26.3791 108.862 26.4003C108.859 26.4214 108.86 26.4431 108.865 26.4639C108.87 26.4847 108.88 26.5042 108.893 26.5213C108.913 26.5572 108.946 26.5845 108.986 26.5981Z" fill="#263238"/>
<path d="M113.95 27.619C113.968 27.6268 113.988 27.6309 114.009 27.6309C114.029 27.6309 114.049 27.6268 114.068 27.619C114.087 27.6095 114.105 27.5962 114.119 27.5799C114.133 27.5636 114.144 27.5446 114.151 27.524C114.158 27.5035 114.161 27.4818 114.159 27.4602C114.157 27.4386 114.151 27.4175 114.142 27.3982C114.032 27.1631 113.867 26.9577 113.662 26.7991C113.456 26.6404 113.216 26.5332 112.961 26.4862C112.939 26.484 112.918 26.4861 112.897 26.4923C112.876 26.4985 112.857 26.5088 112.84 26.5224C112.824 26.5361 112.81 26.553 112.8 26.572C112.79 26.5911 112.784 26.6119 112.782 26.6334C112.779 26.6547 112.78 26.6763 112.786 26.6969C112.792 26.7176 112.802 26.7368 112.816 26.7535C112.829 26.7702 112.846 26.7841 112.865 26.7942C112.883 26.8044 112.904 26.8106 112.926 26.8126C113.127 26.851 113.317 26.9365 113.479 27.0621C113.642 27.1878 113.772 27.3501 113.86 27.5358C113.878 27.5743 113.91 27.6042 113.95 27.619Z" fill="#263238"/>
<path d="M109.556 28.2557L110.244 28.1533C110.244 28.1533 109.834 28.6269 109.556 28.2557Z" fill="#263238"/>
<path d="M91.9076 56.1953C91.9076 56.1953 95.242 62.5377 89.9268 70.8801C91.3284 71.9521 101.303 68.6913 104.141 63.0529C104.029 58.6977 91.9076 56.1953 91.9076 56.1953Z" fill="#007FFF"/>
<path d="M99.8215 42.4603C98.8615 42.4603 97.8471 42.4315 96.8647 42.4315C95.8823 42.4315 94.8871 42.4315 93.9271 42.4795C93.0182 42.5036 92.1118 42.5859 91.2135 42.7259C90.9082 42.7681 90.608 42.841 90.3175 42.9435C89.9407 43.1357 89.5753 43.3494 89.2231 43.5835C87.6767 44.6745 86.2624 45.9417 85.0087 47.3595C83.6807 48.8027 82.3943 50.393 81.2039 51.9674L81.1783 52.0026C80.9969 52.243 80.7341 52.4088 80.4391 52.469C80.1441 52.5291 79.8372 52.4795 79.5763 52.3294C79.3153 52.1792 79.1182 51.9389 79.0219 51.6537C78.9256 51.3684 78.9368 51.0578 79.0535 50.7803C79.4772 49.7876 79.9525 48.8177 80.4775 47.8747C80.9991 46.9371 81.5559 46.0155 82.1703 45.1195C83.4141 43.2389 84.923 41.5479 86.6503 40.0987C87.1276 39.7147 87.6301 39.363 88.1543 39.0459C88.2887 38.9627 88.5255 38.8379 88.6951 38.7579C88.8647 38.6779 89.0535 38.5947 89.2135 38.5371C89.3735 38.4795 89.5335 38.4155 89.6999 38.3675C89.8663 38.3195 90.0199 38.2715 90.1639 38.2267C91.2867 37.9393 92.4305 37.7413 93.5847 37.6347C94.6823 37.5227 95.7607 37.4683 96.8359 37.4459C97.9111 37.4235 98.9607 37.4459 100.071 37.5163C100.728 37.5409 101.349 37.8256 101.796 38.3078C102.244 38.79 102.481 39.4301 102.457 40.0875C102.432 40.7448 102.147 41.3654 101.665 41.8128C101.183 42.2601 100.543 42.4977 99.8855 42.473L99.8215 42.4603Z" fill="#263238"/>
<path opacity="0.5" d="M108.89 27.2572C108.678 27.2799 108.476 27.3603 108.307 27.4895C108.138 27.6186 108.007 27.7918 107.93 27.99C107.29 29.6188 107.901 30.3068 109.11 30.55C110.442 30.8284 110.976 30.1756 111.827 30.23C112.678 30.2844 113.338 31.6188 113.866 31.2252C114.394 30.8316 114.803 29.0652 114.208 28.3452C113.709 27.7148 110.474 27.1004 108.89 27.2572Z" fill="#007FFF"/>
<path d="M113.658 31.4842C113.367 31.4842 113.079 31.2314 112.794 30.985C112.509 30.7386 112.154 30.4346 111.818 30.4154C111.518 30.4155 111.22 30.4731 110.941 30.585C110.347 30.8198 109.697 30.8744 109.073 30.7418C108.356 30.5914 107.892 30.3034 107.658 29.8682C107.399 29.385 107.431 28.7514 107.757 27.9226C107.847 27.6917 107.999 27.4902 108.196 27.3405C108.393 27.1908 108.628 27.0987 108.874 27.0746C110.474 26.9146 113.796 27.5258 114.353 28.2138C114.664 28.6849 114.779 29.2591 114.673 29.8138C114.586 30.5082 114.314 31.1162 113.981 31.3626C113.891 31.4393 113.777 31.4823 113.658 31.4842ZM111.738 30.0442H111.834C112.321 30.0794 112.695 30.3994 113.037 30.7194C113.38 31.0394 113.607 31.1994 113.757 31.0906C113.997 30.9082 114.228 30.361 114.298 29.7882C114.394 29.3309 114.31 28.8543 114.065 28.457C113.629 27.9194 110.449 27.3018 108.909 27.4554C108.731 27.4726 108.56 27.5396 108.418 27.6488C108.275 27.7579 108.166 27.9049 108.103 28.073C107.821 28.7802 107.783 29.3306 107.985 29.705C108.186 30.0794 108.545 30.265 109.146 30.3898C109.708 30.5085 110.293 30.4584 110.826 30.2458C111.118 30.1293 111.427 30.0612 111.741 30.0442H111.738Z" fill="#263238"/>
<path d="M108.974 32.656C109.527 32.0864 111.153 30.2464 111.963 30.3488C112.772 30.4512 113.243 32.5088 113.143 33.568C113.063 34.4416 112.948 35.6576 110.51 35.424C108.071 35.1904 108.091 33.568 108.974 32.656Z" fill="#263238"/>
<path d="M94.0804 52.6787C93.7109 53.4859 93.2764 54.2618 92.7812 54.9987C94.7941 56.6787 100.88 61.7411 104.506 62.5891C105.079 61.8627 105.623 61.1171 106.135 60.3779C102.551 59.6291 96.2916 54.5059 94.0804 52.6787Z" fill="#263238"/>
<path d="M105.089 51.1742C103.508 51.1742 101.831 50.5886 100.929 49.3054C100.399 48.4927 100.172 47.5196 100.289 46.5566C100.438 44.7441 101.09 43.0095 102.173 41.5486C102.519 41.133 102.89 40.7387 103.284 40.3678C103.521 40.1374 103.764 39.9006 103.988 39.6574C104.861 38.7198 105.268 37.7758 105.268 36.7774C105.28 36.292 105.134 35.8158 104.852 35.4206C104.752 35.2903 104.624 35.1839 104.478 35.1092C104.332 35.0344 104.171 34.9932 104.007 34.9886C103.763 34.9988 103.523 35.0588 103.303 35.165C103.083 35.2713 102.887 35.4214 102.727 35.6062C102.713 35.6213 102.696 35.6335 102.677 35.6421C102.658 35.6507 102.638 35.6555 102.617 35.6562C102.597 35.657 102.576 35.6536 102.557 35.6464C102.537 35.6392 102.52 35.6282 102.505 35.6142C102.489 35.6001 102.477 35.5832 102.469 35.5644C102.46 35.5456 102.455 35.5253 102.454 35.5046C102.454 35.484 102.457 35.4634 102.464 35.444C102.472 35.4246 102.482 35.4069 102.497 35.3918C102.685 35.1726 102.917 34.9955 103.179 34.872C103.44 34.7485 103.724 34.6814 104.013 34.675C104.223 34.6801 104.429 34.7319 104.616 34.8265C104.803 34.9212 104.967 35.0563 105.095 35.2222C105.427 35.6687 105.599 36.2146 105.581 36.771C105.597 37.8558 105.153 38.8702 104.221 39.8718C103.991 40.1214 103.745 40.3614 103.508 40.5918C103.123 40.9529 102.76 41.3376 102.423 41.7438C101.377 43.1552 100.748 44.8313 100.605 46.5822C100.498 47.4715 100.705 48.3702 101.191 49.123C102.356 50.755 104.977 51.1742 106.733 50.6238C109.249 49.8366 110.324 47.3598 110.916 45.5678C111.587 43.4783 111.921 41.2952 111.905 39.1006C111.902 37.9992 111.827 36.8992 111.681 35.8078C111.639 35.4718 111.565 35.1358 111.485 34.7774C111.308 34.1173 111.227 33.435 111.245 32.7518C111.249 32.7104 111.269 32.6723 111.301 32.6455C111.333 32.6186 111.374 32.6051 111.415 32.6078C111.436 32.6094 111.456 32.615 111.474 32.6245C111.492 32.6339 111.509 32.6468 111.522 32.6626C111.536 32.6784 111.546 32.6966 111.552 32.7163C111.558 32.736 111.561 32.7568 111.559 32.7774C111.546 33.4252 111.625 34.0715 111.793 34.6974C111.869 35.0462 111.949 35.4078 111.994 35.7534C112.141 36.8588 112.216 37.9726 112.218 39.0878C112.234 41.3163 111.894 43.5331 111.21 45.6542C110.599 47.5134 109.476 50.0798 106.826 50.9086C106.264 51.0855 105.678 51.175 105.089 51.1742Z" fill="#263238"/>
</g>
<defs>
<clipPath id="clip0_2321_272">
<rect width="160" height="160" fill="white"/>
</clipPath>
</defs>
</svg>
