<svg width="223" height="64" viewBox="0 0 223 64" fill="none" xmlns="http://www.w3.org/2000/svg">
<rect x="0.75" y="0.75" width="221.5" height="62.5" rx="4.25" stroke="#007FFF" stroke-width="1.5"/>
<g clip-path="url(#clip0_3229_117)">
<path d="M42.3333 39.2915V42.2082C42.3333 42.9817 42.6406 43.7236 43.1876 44.2706C43.7346 44.8175 44.4764 45.1248 45.25 45.1248H62.75C63.5235 45.1248 64.2654 44.8175 64.8124 44.2706C65.3594 43.7236 65.6666 42.9817 65.6666 42.2082V39.2915" stroke="#007FFF" stroke-width="2.91667" stroke-linecap="round" stroke-linejoin="round"/>
<path d="M46.7083 30.5415L54 37.8332L61.2916 30.5415" stroke="#007FFF" stroke-width="2.91667" stroke-linecap="round" stroke-linejoin="round"/>
<path d="M54 20.3335V37.8335" stroke="#007FFF" stroke-width="2.91667" stroke-linecap="round" stroke-linejoin="round"/>
</g>
<path d="M95.5795 20.5H94.5227C94.4602 20.196 94.3509 19.929 94.1946 19.6989C94.0412 19.4688 93.8537 19.2756 93.6321 19.1193C93.4134 18.9602 93.1705 18.8409 92.9034 18.7614C92.6364 18.6818 92.358 18.642 92.0682 18.642C91.5398 18.642 91.0611 18.7756 90.6321 19.0426C90.206 19.3097 89.8665 19.7031 89.6136 20.223C89.3636 20.7429 89.2386 21.3807 89.2386 22.1364C89.2386 22.892 89.3636 23.5298 89.6136 24.0497C89.8665 24.5696 90.206 24.9631 90.6321 25.2301C91.0611 25.4972 91.5398 25.6307 92.0682 25.6307C92.358 25.6307 92.6364 25.5909 92.9034 25.5114C93.1705 25.4318 93.4134 25.3139 93.6321 25.1577C93.8537 24.9986 94.0412 24.804 94.1946 24.5739C94.3509 24.3409 94.4602 24.0739 94.5227 23.7727H95.5795C95.5 24.2187 95.3551 24.6179 95.1449 24.9702C94.9347 25.3224 94.6733 25.6222 94.3608 25.8693C94.0483 26.1136 93.6974 26.2997 93.3082 26.4276C92.9219 26.5554 92.5085 26.6193 92.0682 26.6193C91.3239 26.6193 90.6619 26.4375 90.0824 26.0739C89.5028 25.7102 89.0469 25.1932 88.7145 24.5227C88.3821 23.8523 88.2159 23.0568 88.2159 22.1364C88.2159 21.2159 88.3821 20.4205 88.7145 19.75C89.0469 19.0795 89.5028 18.5625 90.0824 18.1989C90.6619 17.8352 91.3239 17.6534 92.0682 17.6534C92.5085 17.6534 92.9219 17.7173 93.3082 17.8452C93.6974 17.973 94.0483 18.1605 94.3608 18.4077C94.6733 18.652 94.9347 18.9503 95.1449 19.3026C95.3551 19.652 95.5 20.0511 95.5795 20.5ZM98.1566 17.7727V26.5H97.1509V17.7727H98.1566ZM99.9986 26.5V19.9545H101.004V26.5H99.9986ZM100.51 18.8636C100.314 18.8636 100.145 18.7969 100.003 18.6634C99.8636 18.5298 99.794 18.3693 99.794 18.1818C99.794 17.9943 99.8636 17.8338 100.003 17.7003C100.145 17.5668 100.314 17.5 100.51 17.5C100.706 17.5 100.874 17.5668 101.013 17.7003C101.155 17.8338 101.226 17.9943 101.226 18.1818C101.226 18.3693 101.155 18.5298 101.013 18.6634C100.874 18.7969 100.706 18.8636 100.51 18.8636ZM107.312 28.9545V25.4943H107.227C107.153 25.6136 107.048 25.7642 106.912 25.946C106.775 26.125 106.581 26.2855 106.328 26.4276C106.075 26.5668 105.738 26.6364 105.318 26.6364C104.772 26.6364 104.291 26.4986 103.873 26.223C103.456 25.9446 103.129 25.5526 102.893 25.0469C102.657 24.5384 102.539 23.9375 102.539 23.2443C102.539 22.5568 102.657 21.9602 102.893 21.4545C103.129 20.9489 103.457 20.5582 103.877 20.2827C104.298 20.0071 104.784 19.8693 105.335 19.8693C105.761 19.8693 106.098 19.9403 106.345 20.0824C106.595 20.2216 106.785 20.3807 106.916 20.5597C107.049 20.7358 107.153 20.8807 107.227 20.9943H107.346V19.9545H108.318V28.9545H107.312ZM105.454 25.733C105.858 25.733 106.199 25.6278 106.477 25.4176C106.755 25.2045 106.967 24.9105 107.112 24.5355C107.257 24.1577 107.329 23.7216 107.329 23.2273C107.329 22.7386 107.258 22.3111 107.116 21.9446C106.974 21.5753 106.764 21.2884 106.485 21.0838C106.207 20.8764 105.863 20.7727 105.454 20.7727C105.028 20.7727 104.673 20.8821 104.389 21.1009C104.108 21.3168 103.896 21.6108 103.754 21.983C103.615 22.3523 103.545 22.767 103.545 23.2273C103.545 23.6932 103.616 24.1165 103.758 24.4972C103.903 24.875 104.116 25.1761 104.397 25.4006C104.681 25.6222 105.034 25.733 105.454 25.733ZM114.284 23.8239V19.9545H115.289V26.5H114.284V25.392H114.216C114.062 25.7244 113.824 26.0071 113.5 26.2401C113.176 26.4702 112.767 26.5852 112.272 26.5852C111.863 26.5852 111.5 26.4957 111.181 26.3168C110.863 26.1349 110.613 25.8622 110.431 25.4986C110.25 25.1321 110.159 24.6705 110.159 24.1136V19.9545H111.164V24.0455C111.164 24.5227 111.298 24.9034 111.565 25.1875C111.835 25.4716 112.179 25.6136 112.596 25.6136C112.846 25.6136 113.1 25.5497 113.359 25.4219C113.62 25.294 113.839 25.098 114.015 24.8338C114.194 24.5696 114.284 24.233 114.284 23.8239ZM119.876 26.6364C119.245 26.6364 118.701 26.4972 118.244 26.2188C117.789 25.9375 117.438 25.5455 117.191 25.0426C116.947 24.5369 116.825 23.9489 116.825 23.2784C116.825 22.608 116.947 22.017 117.191 21.5057C117.438 20.9915 117.782 20.5909 118.222 20.304C118.665 20.0142 119.183 19.8693 119.773 19.8693C120.114 19.8693 120.451 19.9261 120.783 20.0398C121.116 20.1534 121.418 20.3381 121.691 20.5938C121.964 20.8466 122.181 21.1818 122.343 21.5994C122.505 22.017 122.586 22.5312 122.586 23.142V23.5682H117.54V22.6989H121.563C121.563 22.3295 121.489 22 121.342 21.7102C121.197 21.4205 120.989 21.1918 120.719 21.0241C120.452 20.8565 120.137 20.7727 119.773 20.7727C119.373 20.7727 119.026 20.8722 118.734 21.071C118.444 21.267 118.221 21.5227 118.065 21.8381C117.908 22.1534 117.83 22.4915 117.83 22.8523V23.4318C117.83 23.9261 117.915 24.3452 118.086 24.6889C118.259 25.0298 118.499 25.2898 118.806 25.4688C119.113 25.6449 119.469 25.733 119.876 25.733C120.14 25.733 120.379 25.696 120.592 25.6222C120.808 25.5455 120.994 25.4318 121.15 25.2812C121.306 25.1278 121.427 24.9375 121.512 24.7102L122.484 24.983C122.381 25.3125 122.21 25.6023 121.968 25.8523C121.727 26.0994 121.428 26.2926 121.073 26.4318C120.718 26.5682 120.319 26.6364 119.876 26.6364ZM129.417 26.6534C129.002 26.6534 128.626 26.5753 128.288 26.419C127.95 26.2599 127.681 26.0312 127.482 25.733C127.283 25.4318 127.184 25.0682 127.184 24.642C127.184 24.267 127.258 23.9631 127.406 23.7301C127.553 23.4943 127.751 23.3097 127.998 23.1761C128.245 23.0426 128.518 22.9432 128.816 22.8778C129.117 22.8097 129.42 22.7557 129.724 22.7159C130.121 22.6648 130.444 22.6264 130.691 22.6009C130.941 22.5724 131.123 22.5256 131.237 22.4602C131.353 22.3949 131.411 22.2812 131.411 22.1193V22.0852C131.411 21.6648 131.296 21.3381 131.066 21.1051C130.839 20.8722 130.494 20.7557 130.031 20.7557C129.55 20.7557 129.174 20.8608 128.901 21.071C128.629 21.2812 128.437 21.5057 128.326 21.7443L127.371 21.4034C127.542 21.0057 127.769 20.696 128.053 20.4744C128.34 20.25 128.653 20.0937 128.991 20.0057C129.332 19.9148 129.667 19.8693 129.996 19.8693C130.207 19.8693 130.448 19.8949 130.721 19.946C130.996 19.9943 131.262 20.0952 131.518 20.2486C131.776 20.402 131.991 20.6335 132.161 20.9432C132.332 21.2528 132.417 21.6676 132.417 22.1875V26.5H131.411V25.6136H131.36C131.292 25.7557 131.178 25.9077 131.019 26.0696C130.86 26.2315 130.648 26.3693 130.384 26.483C130.12 26.5966 129.798 26.6534 129.417 26.6534ZM129.57 25.75C129.968 25.75 130.303 25.6719 130.576 25.5156C130.852 25.3594 131.059 25.1577 131.198 24.9105C131.34 24.6634 131.411 24.4034 131.411 24.1307V23.2102C131.369 23.2614 131.275 23.3082 131.13 23.3509C130.988 23.3906 130.823 23.4261 130.636 23.4574C130.451 23.4858 130.271 23.5114 130.094 23.5341C129.921 23.554 129.781 23.571 129.673 23.5852C129.411 23.6193 129.167 23.6747 128.94 23.7514C128.715 23.8253 128.533 23.9375 128.394 24.0881C128.258 24.2358 128.19 24.4375 128.19 24.6932C128.19 25.0426 128.319 25.3068 128.577 25.4858C128.839 25.6619 129.17 25.75 129.57 25.75ZM138.718 28.9545V25.4943H138.633C138.559 25.6136 138.454 25.7642 138.318 25.946C138.181 26.125 137.987 26.2855 137.734 26.4276C137.481 26.5668 137.145 26.6364 136.724 26.6364C136.179 26.6364 135.697 26.4986 135.279 26.223C134.862 25.9446 134.535 25.5526 134.299 25.0469C134.064 24.5384 133.946 23.9375 133.946 23.2443C133.946 22.5568 134.064 21.9602 134.299 21.4545C134.535 20.9489 134.863 20.5582 135.284 20.2827C135.704 20.0071 136.19 19.8693 136.741 19.8693C137.167 19.8693 137.504 19.9403 137.751 20.0824C138.001 20.2216 138.191 20.3807 138.322 20.5597C138.456 20.7358 138.559 20.8807 138.633 20.9943H138.752V19.9545H139.724V28.9545H138.718ZM136.86 25.733C137.264 25.733 137.605 25.6278 137.883 25.4176C138.162 25.2045 138.373 24.9105 138.518 24.5355C138.663 24.1577 138.735 23.7216 138.735 23.2273C138.735 22.7386 138.664 22.3111 138.522 21.9446C138.38 21.5753 138.17 21.2884 137.892 21.0838C137.613 20.8764 137.27 20.7727 136.86 20.7727C136.434 20.7727 136.079 20.8821 135.795 21.1009C135.514 21.3168 135.302 21.6108 135.16 21.983C135.021 22.3523 134.951 22.767 134.951 23.2273C134.951 23.6932 135.022 24.1165 135.164 24.4972C135.309 24.875 135.522 25.1761 135.804 25.4006C136.088 25.6222 136.44 25.733 136.86 25.733ZM145.69 23.8239V19.9545H146.696V26.5H145.69V25.392H145.622C145.468 25.7244 145.23 26.0071 144.906 26.2401C144.582 26.4702 144.173 26.5852 143.679 26.5852C143.27 26.5852 142.906 26.4957 142.588 26.3168C142.27 26.1349 142.02 25.8622 141.838 25.4986C141.656 25.1321 141.565 24.6705 141.565 24.1136V19.9545H142.571V24.0455C142.571 24.5227 142.704 24.9034 142.971 25.1875C143.241 25.4716 143.585 25.6136 144.002 25.6136C144.252 25.6136 144.507 25.5497 144.765 25.4219C145.027 25.294 145.245 25.098 145.422 24.8338C145.6 24.5696 145.69 24.233 145.69 23.8239ZM148.538 26.5V19.9545H149.543V26.5H148.538ZM149.049 18.8636C148.853 18.8636 148.684 18.7969 148.542 18.6634C148.403 18.5298 148.333 18.3693 148.333 18.1818C148.333 17.9943 148.403 17.8338 148.542 17.7003C148.684 17.5668 148.853 17.5 149.049 17.5C149.245 17.5 149.413 17.5668 149.552 17.7003C149.694 17.8338 149.765 17.9943 149.765 18.1818C149.765 18.3693 149.694 18.5298 149.552 18.6634C149.413 18.7969 149.245 18.8636 149.049 18.8636ZM154.76 28.9545V19.9545H155.732V20.9943H155.851C155.925 20.8807 156.027 20.7358 156.158 20.5597C156.292 20.3807 156.482 20.2216 156.729 20.0824C156.979 19.9403 157.317 19.8693 157.743 19.8693C158.294 19.8693 158.78 20.0071 159.201 20.2827C159.621 20.5582 159.949 20.9489 160.185 21.4545C160.421 21.9602 160.539 22.5568 160.539 23.2443C160.539 23.9375 160.421 24.5384 160.185 25.0469C159.949 25.5526 159.623 25.9446 159.205 26.223C158.787 26.4986 158.306 26.6364 157.76 26.6364C157.34 26.6364 157.003 26.5668 156.75 26.4276C156.498 26.2855 156.303 26.125 156.167 25.946C156.03 25.7642 155.925 25.6136 155.851 25.4943H155.766V28.9545H154.76ZM155.749 23.2273C155.749 23.7216 155.821 24.1577 155.966 24.5355C156.111 24.9105 156.323 25.2045 156.601 25.4176C156.88 25.6278 157.221 25.733 157.624 25.733C158.044 25.733 158.395 25.6222 158.676 25.4006C158.961 25.1761 159.174 24.875 159.316 24.4972C159.461 24.1165 159.533 23.6932 159.533 23.2273C159.533 22.767 159.462 22.3523 159.32 21.983C159.181 21.6108 158.969 21.3168 158.685 21.1009C158.404 20.8821 158.05 20.7727 157.624 20.7727C157.215 20.7727 156.871 20.8764 156.593 21.0838C156.314 21.2884 156.104 21.5753 155.962 21.9446C155.82 22.3111 155.749 22.7386 155.749 23.2273ZM163.999 26.6534C163.584 26.6534 163.208 26.5753 162.87 26.419C162.532 26.2599 162.263 26.0312 162.064 25.733C161.865 25.4318 161.766 25.0682 161.766 24.642C161.766 24.267 161.84 23.9631 161.988 23.7301C162.135 23.4943 162.333 23.3097 162.58 23.1761C162.827 23.0426 163.1 22.9432 163.398 22.8778C163.699 22.8097 164.002 22.7557 164.306 22.7159C164.703 22.6648 165.026 22.6264 165.273 22.6009C165.523 22.5724 165.705 22.5256 165.819 22.4602C165.935 22.3949 165.993 22.2812 165.993 22.1193V22.0852C165.993 21.6648 165.878 21.3381 165.648 21.1051C165.421 20.8722 165.076 20.7557 164.613 20.7557C164.132 20.7557 163.756 20.8608 163.483 21.071C163.211 21.2812 163.019 21.5057 162.908 21.7443L161.953 21.4034C162.124 21.0057 162.351 20.696 162.635 20.4744C162.922 20.25 163.235 20.0937 163.573 20.0057C163.914 19.9148 164.249 19.8693 164.578 19.8693C164.789 19.8693 165.03 19.8949 165.303 19.946C165.578 19.9943 165.844 20.0952 166.1 20.2486C166.358 20.402 166.573 20.6335 166.743 20.9432C166.914 21.2528 166.999 21.6676 166.999 22.1875V26.5H165.993V25.6136H165.942C165.874 25.7557 165.76 25.9077 165.601 26.0696C165.442 26.2315 165.23 26.3693 164.966 26.483C164.702 26.5966 164.38 26.6534 163.999 26.6534ZM164.152 25.75C164.55 25.75 164.885 25.6719 165.158 25.5156C165.434 25.3594 165.641 25.1577 165.78 24.9105C165.922 24.6634 165.993 24.4034 165.993 24.1307V23.2102C165.951 23.2614 165.857 23.3082 165.712 23.3509C165.57 23.3906 165.405 23.4261 165.218 23.4574C165.033 23.4858 164.853 23.5114 164.676 23.5341C164.503 23.554 164.363 23.571 164.255 23.5852C163.993 23.6193 163.749 23.6747 163.522 23.7514C163.297 23.8253 163.115 23.9375 162.976 24.0881C162.84 24.2358 162.772 24.4375 162.772 24.6932C162.772 25.0426 162.901 25.3068 163.159 25.4858C163.421 25.6619 163.752 25.75 164.152 25.75ZM168.835 26.5V19.9545H169.806V20.9432H169.874C169.994 20.6193 170.21 20.3565 170.522 20.1548C170.835 19.9531 171.187 19.8523 171.579 19.8523C171.653 19.8523 171.745 19.8537 171.856 19.8565C171.967 19.8594 172.05 19.8636 172.107 19.8693V20.892C172.073 20.8835 171.995 20.8707 171.873 20.8537C171.754 20.8338 171.627 20.8239 171.494 20.8239C171.175 20.8239 170.891 20.8906 170.641 21.0241C170.394 21.1548 170.198 21.3366 170.053 21.5696C169.911 21.7997 169.84 22.0625 169.84 22.358V26.5H168.835ZM175.225 26.6534C174.811 26.6534 174.434 26.5753 174.096 26.419C173.758 26.2599 173.49 26.0312 173.291 25.733C173.092 25.4318 172.993 25.0682 172.993 24.642C172.993 24.267 173.066 23.9631 173.214 23.7301C173.362 23.4943 173.559 23.3097 173.806 23.1761C174.054 23.0426 174.326 22.9432 174.625 22.8778C174.926 22.8097 175.228 22.7557 175.532 22.7159C175.93 22.6648 176.252 22.6264 176.5 22.6009C176.75 22.5724 176.931 22.5256 177.045 22.4602C177.162 22.3949 177.22 22.2812 177.22 22.1193V22.0852C177.22 21.6648 177.105 21.3381 176.875 21.1051C176.647 20.8722 176.302 20.7557 175.839 20.7557C175.359 20.7557 174.983 20.8608 174.71 21.071C174.437 21.2812 174.245 21.5057 174.135 21.7443L173.18 21.4034C173.35 21.0057 173.578 20.696 173.862 20.4744C174.149 20.25 174.461 20.0937 174.799 20.0057C175.14 19.9148 175.475 19.8693 175.805 19.8693C176.015 19.8693 176.257 19.8949 176.529 19.946C176.805 19.9943 177.071 20.0952 177.326 20.2486C177.585 20.402 177.799 20.6335 177.97 20.9432C178.14 21.2528 178.225 21.6676 178.225 22.1875V26.5H177.22V25.6136H177.169C177.1 25.7557 176.987 25.9077 176.828 26.0696C176.669 26.2315 176.457 26.3693 176.193 26.483C175.929 26.5966 175.606 26.6534 175.225 26.6534ZM175.379 25.75C175.777 25.75 176.112 25.6719 176.385 25.5156C176.66 25.3594 176.868 25.1577 177.007 24.9105C177.149 24.6634 177.22 24.4034 177.22 24.1307V23.2102C177.177 23.2614 177.083 23.3082 176.939 23.3509C176.797 23.3906 176.632 23.4261 176.444 23.4574C176.26 23.4858 176.079 23.5114 175.903 23.5341C175.73 23.554 175.589 23.571 175.481 23.5852C175.22 23.6193 174.975 23.6747 174.748 23.7514C174.524 23.8253 174.342 23.9375 174.203 24.0881C174.066 24.2358 173.998 24.4375 173.998 24.6932C173.998 25.0426 174.127 25.3068 174.386 25.4858C174.647 25.6619 174.978 25.75 175.379 25.75Z" fill="#007FFF"/>
<path d="M88.5114 45.5V33.8636H93.1705C94.0265 33.8636 94.7405 33.9905 95.3125 34.2443C95.8845 34.4981 96.3144 34.8504 96.6023 35.3011C96.8902 35.7481 97.0341 36.2633 97.0341 36.8466C97.0341 37.3011 96.9432 37.7008 96.7614 38.0455C96.5795 38.3864 96.3295 38.6667 96.0114 38.8864C95.697 39.1023 95.3371 39.2557 94.9318 39.3466V39.4602C95.375 39.4792 95.7898 39.6042 96.1761 39.8352C96.5663 40.0663 96.8826 40.3902 97.125 40.8068C97.3674 41.2197 97.4886 41.7121 97.4886 42.2841C97.4886 42.9015 97.3352 43.4527 97.0284 43.9375C96.7254 44.4186 96.2765 44.7992 95.6818 45.0795C95.0871 45.3598 94.3542 45.5 93.483 45.5H88.5114ZM90.9716 43.4886H92.9773C93.6629 43.4886 94.1629 43.358 94.4773 43.0966C94.7917 42.8314 94.9489 42.4792 94.9489 42.0398C94.9489 41.7178 94.8712 41.4337 94.7159 41.1875C94.5606 40.9413 94.339 40.7481 94.0511 40.608C93.767 40.4678 93.428 40.3977 93.0341 40.3977H90.9716V43.4886ZM90.9716 38.733H92.7955C93.1326 38.733 93.4318 38.6742 93.6932 38.5568C93.9583 38.4356 94.1667 38.2652 94.3182 38.0455C94.4735 37.8258 94.5511 37.5625 94.5511 37.2557C94.5511 36.8352 94.4015 36.4962 94.1023 36.2386C93.8068 35.9811 93.3864 35.8523 92.8409 35.8523H90.9716V38.733ZM101.533 45.6648C100.976 45.6648 100.48 45.5682 100.044 45.375C99.6084 45.178 99.2637 44.8883 99.0099 44.5057C98.7599 44.1193 98.6349 43.6383 98.6349 43.0625C98.6349 42.5777 98.724 42.1705 98.902 41.8409C99.08 41.5114 99.3224 41.2462 99.6293 41.0455C99.9361 40.8447 100.285 40.6932 100.675 40.5909C101.069 40.4886 101.482 40.4167 101.913 40.375C102.421 40.322 102.83 40.2727 103.141 40.2273C103.451 40.178 103.677 40.1061 103.817 40.0114C103.957 39.9167 104.027 39.7765 104.027 39.5909V39.5568C104.027 39.197 103.913 38.9186 103.686 38.7216C103.463 38.5246 103.144 38.4261 102.732 38.4261C102.296 38.4261 101.949 38.5227 101.692 38.7159C101.434 38.9053 101.264 39.1439 101.18 39.4318L98.9418 39.25C99.0554 38.7197 99.2789 38.2614 99.6122 37.875C99.9455 37.4848 100.375 37.1856 100.902 36.9773C101.432 36.7652 102.046 36.6591 102.743 36.6591C103.228 36.6591 103.692 36.7159 104.135 36.8295C104.582 36.9432 104.978 37.1193 105.322 37.358C105.671 37.5966 105.946 37.9034 106.146 38.2784C106.347 38.6496 106.447 39.0947 106.447 39.6136V45.5H104.152V44.2898H104.084C103.944 44.5625 103.756 44.803 103.521 45.0114C103.286 45.2159 103.004 45.3769 102.675 45.4943C102.345 45.608 101.964 45.6648 101.533 45.6648ZM102.226 43.9943C102.582 43.9943 102.896 43.9242 103.169 43.7841C103.442 43.6402 103.656 43.447 103.811 43.2045C103.966 42.9621 104.044 42.6875 104.044 42.3807V41.4545C103.968 41.5038 103.864 41.5492 103.732 41.5909C103.603 41.6288 103.457 41.6648 103.294 41.6989C103.131 41.7292 102.968 41.7576 102.805 41.7841C102.643 41.8068 102.495 41.8277 102.362 41.8466C102.078 41.8883 101.83 41.9545 101.618 42.0455C101.406 42.1364 101.241 42.2595 101.124 42.4148C101.006 42.5663 100.947 42.7557 100.947 42.983C100.947 43.3125 101.067 43.5644 101.305 43.7386C101.548 43.9091 101.855 43.9943 102.226 43.9943ZM108.325 45.5V36.7727H110.746V45.5H108.325ZM109.541 35.6477C109.181 35.6477 108.873 35.5284 108.615 35.2898C108.361 35.0473 108.234 34.7576 108.234 34.4205C108.234 34.0871 108.361 33.8011 108.615 33.5625C108.873 33.3201 109.181 33.1989 109.541 33.1989C109.901 33.1989 110.208 33.3201 110.462 33.5625C110.719 33.8011 110.848 34.0871 110.848 34.4205C110.848 34.7576 110.719 35.0473 110.462 35.2898C110.208 35.5284 109.901 35.6477 109.541 35.6477ZM114.707 36.7727L116.31 39.8239L117.952 36.7727H120.435L117.906 41.1364L120.503 45.5H118.031L116.31 42.483L114.616 45.5H112.116L114.707 41.1364L112.207 36.7727H114.707ZM124.314 45.6648C123.757 45.6648 123.261 45.5682 122.825 45.375C122.39 45.178 122.045 44.8883 121.791 44.5057C121.541 44.1193 121.416 43.6383 121.416 43.0625C121.416 42.5777 121.505 42.1705 121.683 41.8409C121.861 41.5114 122.104 41.2462 122.411 41.0455C122.717 40.8447 123.066 40.6932 123.456 40.5909C123.85 40.4886 124.263 40.4167 124.695 40.375C125.202 40.322 125.611 40.2727 125.922 40.2273C126.232 40.178 126.458 40.1061 126.598 40.0114C126.738 39.9167 126.808 39.7765 126.808 39.5909V39.5568C126.808 39.197 126.695 38.9186 126.467 38.7216C126.244 38.5246 125.926 38.4261 125.513 38.4261C125.077 38.4261 124.731 38.5227 124.473 38.7159C124.215 38.9053 124.045 39.1439 123.962 39.4318L121.723 39.25C121.837 38.7197 122.06 38.2614 122.393 37.875C122.727 37.4848 123.157 37.1856 123.683 36.9773C124.214 36.7652 124.827 36.6591 125.524 36.6591C126.009 36.6591 126.473 36.7159 126.916 36.8295C127.363 36.9432 127.759 37.1193 128.104 37.358C128.452 37.5966 128.727 37.9034 128.928 38.2784C129.128 38.6496 129.229 39.0947 129.229 39.6136V45.5H126.933V44.2898H126.865C126.725 44.5625 126.537 44.803 126.303 45.0114C126.068 45.2159 125.786 45.3769 125.456 45.4943C125.126 45.608 124.746 45.6648 124.314 45.6648ZM125.007 43.9943C125.363 43.9943 125.678 43.9242 125.95 43.7841C126.223 43.6402 126.437 43.447 126.592 43.2045C126.748 42.9621 126.825 42.6875 126.825 42.3807V41.4545C126.75 41.5038 126.645 41.5492 126.513 41.5909C126.384 41.6288 126.238 41.6648 126.075 41.6989C125.912 41.7292 125.75 41.7576 125.587 41.7841C125.424 41.8068 125.276 41.8277 125.143 41.8466C124.859 41.8883 124.611 41.9545 124.399 42.0455C124.187 42.1364 124.022 42.2595 123.905 42.4148C123.787 42.5663 123.729 42.7557 123.729 42.983C123.729 43.3125 123.848 43.5644 124.087 43.7386C124.329 43.9091 124.636 43.9943 125.007 43.9943ZM131.107 45.5V36.7727H133.453V38.2955H133.544C133.703 37.7538 133.97 37.3447 134.345 37.0682C134.72 36.7879 135.152 36.6477 135.641 36.6477C135.762 36.6477 135.893 36.6553 136.033 36.6705C136.173 36.6856 136.296 36.7064 136.402 36.733V38.8807C136.288 38.8466 136.131 38.8163 135.93 38.7898C135.73 38.7633 135.546 38.75 135.379 38.75C135.023 38.75 134.705 38.8277 134.425 38.983C134.148 39.1345 133.929 39.3466 133.766 39.6193C133.607 39.892 133.527 40.2064 133.527 40.5625V45.5H131.107ZM145.3 45.6705C144.417 45.6705 143.654 45.483 143.01 45.108C142.37 44.7292 141.875 44.2027 141.527 43.5284C141.179 42.8504 141.004 42.0644 141.004 41.1705C141.004 40.2689 141.179 39.4811 141.527 38.8068C141.875 38.1288 142.37 37.6023 143.01 37.2273C143.654 36.8485 144.417 36.6591 145.3 36.6591C146.182 36.6591 146.944 36.8485 147.584 37.2273C148.228 37.6023 148.724 38.1288 149.072 38.8068C149.421 39.4811 149.595 40.2689 149.595 41.1705C149.595 42.0644 149.421 42.8504 149.072 43.5284C148.724 44.2027 148.228 44.7292 147.584 45.108C146.944 45.483 146.182 45.6705 145.3 45.6705ZM145.311 43.7955C145.713 43.7955 146.048 43.6818 146.317 43.4545C146.586 43.2235 146.788 42.9091 146.925 42.5114C147.065 42.1136 147.135 41.661 147.135 41.1534C147.135 40.6458 147.065 40.1932 146.925 39.7955C146.788 39.3977 146.586 39.0833 146.317 38.8523C146.048 38.6212 145.713 38.5057 145.311 38.5057C144.906 38.5057 144.565 38.6212 144.288 38.8523C144.016 39.0833 143.809 39.3977 143.669 39.7955C143.533 40.1932 143.464 40.6458 143.464 41.1534C143.464 41.661 143.533 42.1136 143.669 42.5114C143.809 42.9091 144.016 43.2235 144.288 43.4545C144.565 43.6818 144.906 43.7955 145.311 43.7955ZM156.923 45.5H154.287L158.304 33.8636H161.474L165.486 45.5H162.849L159.935 36.5227H159.844L156.923 45.5ZM156.759 40.9261H162.986V42.8466H156.759V40.9261ZM166.841 48.7727V36.7727H169.227V38.2386H169.335C169.441 38.0038 169.595 37.7652 169.795 37.5227C170 37.2765 170.265 37.072 170.591 36.9091C170.92 36.7424 171.33 36.6591 171.818 36.6591C172.455 36.6591 173.042 36.8258 173.58 37.1591C174.117 37.4886 174.547 37.9867 174.869 38.6534C175.191 39.3163 175.352 40.1477 175.352 41.1477C175.352 42.1212 175.195 42.9432 174.881 43.6136C174.57 44.2803 174.146 44.786 173.608 45.1307C173.074 45.4716 172.475 45.642 171.812 45.642C171.343 45.642 170.943 45.5644 170.614 45.4091C170.288 45.2538 170.021 45.0587 169.812 44.8239C169.604 44.5852 169.445 44.3447 169.335 44.1023H169.261V48.7727H166.841ZM169.21 41.1364C169.21 41.6553 169.282 42.108 169.426 42.4943C169.57 42.8807 169.778 43.1818 170.051 43.3977C170.324 43.6098 170.655 43.7159 171.045 43.7159C171.439 43.7159 171.773 43.608 172.045 43.392C172.318 43.1723 172.525 42.8693 172.665 42.483C172.809 42.0928 172.881 41.6439 172.881 41.1364C172.881 40.6326 172.811 40.1894 172.67 39.8068C172.53 39.4242 172.324 39.125 172.051 38.9091C171.778 38.6932 171.443 38.5852 171.045 38.5852C170.652 38.5852 170.318 38.6894 170.045 38.8977C169.777 39.1061 169.57 39.4015 169.426 39.7841C169.282 40.1667 169.21 40.6174 169.21 41.1364ZM176.966 48.7727V36.7727H179.352V38.2386H179.46C179.566 38.0038 179.72 37.7652 179.92 37.5227C180.125 37.2765 180.39 37.072 180.716 36.9091C181.045 36.7424 181.455 36.6591 181.943 36.6591C182.58 36.6591 183.167 36.8258 183.705 37.1591C184.242 37.4886 184.672 37.9867 184.994 38.6534C185.316 39.3163 185.477 40.1477 185.477 41.1477C185.477 42.1212 185.32 42.9432 185.006 43.6136C184.695 44.2803 184.271 44.786 183.733 45.1307C183.199 45.4716 182.6 45.642 181.938 45.642C181.468 45.642 181.068 45.5644 180.739 45.4091C180.413 45.2538 180.146 45.0587 179.938 44.8239C179.729 44.5852 179.57 44.3447 179.46 44.1023H179.386V48.7727H176.966ZM179.335 41.1364C179.335 41.6553 179.407 42.108 179.551 42.4943C179.695 42.8807 179.903 43.1818 180.176 43.3977C180.449 43.6098 180.78 43.7159 181.17 43.7159C181.564 43.7159 181.898 43.608 182.17 43.392C182.443 43.1723 182.65 42.8693 182.79 42.483C182.934 42.0928 183.006 41.6439 183.006 41.1364C183.006 40.6326 182.936 40.1894 182.795 39.8068C182.655 39.4242 182.449 39.125 182.176 38.9091C181.903 38.6932 181.568 38.5852 181.17 38.5852C180.777 38.5852 180.443 38.6894 180.17 38.8977C179.902 39.1061 179.695 39.4015 179.551 39.7841C179.407 40.1667 179.335 40.6174 179.335 41.1364Z" fill="#007FFF"/>
<defs>
<clipPath id="clip0_3229_117">
<rect width="35" height="35" fill="white" transform="translate(36.5 14.5)"/>
</clipPath>
</defs>
</svg>
