<svg width="160" height="25" viewBox="0 0 160 25" fill="none" xmlns="http://www.w3.org/2000/svg">
<path d="M13.3803 24.9485C11.8435 24.9485 11.0133 24.7083 10.8897 24.2279L10.0153 20.9081H5.80254L5.03416 24.0993C4.92818 24.6311 4.08032 24.8971 2.49059 24.8971C1.64273 24.8971 1.01566 24.8542 0.609399 24.7684C0.203133 24.6654 0 24.5882 0 24.5368L4.68972 7.11395C4.68972 6.9767 5.89969 6.90807 8.31962 6.90807C10.7395 6.90807 11.9495 6.9767 11.9495 7.11395L16.5333 24.5625C16.5333 24.6826 16.127 24.777 15.3145 24.8456C14.5019 24.9142 13.8572 24.9485 13.3803 24.9485ZM6.46493 17.6397H9.24696L8.05466 12.3125H7.89569L6.46493 17.6397Z" fill="white"/>
<path d="M25.5916 24.4853C25.5916 24.8284 24.7173 25 22.9686 25C21.2199 25 20.3455 24.8284 20.3455 24.4853V11.5662H17.166C16.8658 11.5662 16.6538 11.1716 16.5301 10.3823C16.4772 10.0049 16.4507 9.61886 16.4507 9.22425C16.4507 8.82964 16.4772 8.44361 16.5301 8.06616C16.6538 7.27694 16.8658 6.88233 17.166 6.88233H28.6916C28.9919 6.88233 29.2039 7.27694 29.3275 8.06616C29.3805 8.44361 29.407 8.82964 29.407 9.22425C29.407 9.61886 29.3805 10.0049 29.3275 10.3823C29.2039 11.1716 28.9919 11.5662 28.6916 11.5662H25.5916V24.4853Z" fill="white"/>
<path d="M30.6511 23.3787V7.3713C30.6511 7.01101 31.5431 6.83086 33.3271 6.83086C35.1288 6.83086 36.0297 7.01101 36.0297 7.3713V19.9816H40.11C40.4279 19.9816 40.6487 20.3848 40.7724 21.1912C40.8254 21.5858 40.8519 21.989 40.8519 22.4007C40.8519 22.8125 40.8254 23.2328 40.7724 23.6618C40.6311 24.4853 40.4014 24.8971 40.0835 24.8971H31.9228C31.5342 24.8971 31.2251 24.7426 30.9955 24.4338C30.7659 24.125 30.6511 23.7733 30.6511 23.3787Z" fill="white"/>
<path d="M54.8831 24.9485C53.3464 24.9485 52.5162 24.7083 52.3926 24.2279L51.5182 20.9081H47.3054L46.537 24.0993C46.431 24.6311 45.5832 24.8971 43.9935 24.8971C43.1456 24.8971 42.5185 24.8542 42.1123 24.7684C41.706 24.6654 41.5029 24.5882 41.5029 24.5368L46.1926 7.11395C46.1926 6.9767 47.4026 6.90807 49.8225 6.90807C52.2424 6.90807 53.4524 6.9767 53.4524 7.11395L58.0361 24.5625C58.0361 24.6826 57.6299 24.777 56.8173 24.8456C56.0048 24.9142 55.3601 24.9485 54.8831 24.9485ZM47.9678 17.6397H50.7498L49.5575 12.3125H49.3986L47.9678 17.6397Z" fill="white"/>
<path d="M74.3117 24.3309C74.3117 24.6912 73.4815 24.8713 71.8211 24.8713C70.1607 24.8713 69.2598 24.7426 69.1185 24.4853L64.6938 16.4559V24.4596C64.6938 24.7684 63.8724 24.9228 62.2297 24.9228C60.6046 24.9228 59.7921 24.7684 59.7921 24.4596V7.24263C59.7921 6.98527 60.4898 6.8566 61.8852 6.8566C62.4328 6.8566 63.0687 6.90807 63.7929 7.01101C64.5348 7.09679 64.9852 7.26836 65.1442 7.52572L69.3835 15.4522V7.3713C69.3835 7.04532 70.2048 6.88233 71.8476 6.88233C73.4903 6.88233 74.3117 7.04532 74.3117 7.3713V24.3309Z" fill="white"/>
<path d="M84.948 24.4853C84.948 24.8284 84.0736 25 82.3249 25C80.5762 25 79.7019 24.8284 79.7019 24.4853V11.5662H76.5224C76.2221 11.5662 76.0101 11.1716 75.8865 10.3823C75.8335 10.0049 75.807 9.61886 75.807 9.22425C75.807 8.82964 75.8335 8.44361 75.8865 8.06616C76.0101 7.27694 76.2221 6.88233 76.5224 6.88233H88.048C88.3483 6.88233 88.5602 7.27694 88.6839 8.06616C88.7369 8.44361 88.7634 8.82964 88.7634 9.22425C88.7634 9.61886 88.7369 10.0049 88.6839 10.3823C88.5602 11.1716 88.3483 11.5662 88.048 11.5662H84.948V24.4853Z" fill="white"/>
<path d="M92.0211 20.4706V11.3088H90.1399C89.8396 11.3088 89.6276 10.9399 89.504 10.2022C89.451 9.8419 89.4245 9.47302 89.4245 9.09557C89.4245 8.71812 89.451 8.34925 89.504 7.98895C89.6276 7.25121 89.8396 6.88233 90.1399 6.88233H99.0424C99.3427 6.88233 99.5458 7.25121 99.6518 7.98895C99.7225 8.34925 99.7578 8.71812 99.7578 9.09557C99.7578 9.47302 99.7225 9.8419 99.6518 10.2022C99.5458 10.9399 99.3427 11.3088 99.0424 11.3088H97.2672V20.4706H99.1219C99.4222 20.4706 99.6341 20.8395 99.7578 21.5772C99.8284 21.9375 99.8638 22.3064 99.8638 22.6838C99.8638 23.0613 99.8284 23.4301 99.7578 23.7904C99.6341 24.5282 99.4222 24.8971 99.1219 24.8971H90.1929C89.8926 24.8971 89.6895 24.5282 89.5835 23.7904C89.5128 23.4301 89.4775 23.0613 89.4775 22.6838C89.4775 22.3064 89.5128 21.9375 89.5835 21.5772C89.6895 20.8395 89.8926 20.4706 90.1929 20.4706H92.0211Z" fill="white"/>
<path d="M101.631 23.7132V8.27204C101.631 7.84312 101.737 7.50856 101.949 7.26836C102.179 7.01101 102.47 6.88233 102.824 6.88233H107.248C110.057 6.88233 112.185 7.56861 113.634 8.94116C115.1 10.3137 115.833 12.4755 115.833 15.4265C115.833 21.7402 113.06 24.8971 107.513 24.8971H102.983C102.082 24.8971 101.631 24.5025 101.631 23.7132ZM106.718 11.772V19.4669C106.718 19.8272 106.745 20.0588 106.798 20.1618C106.851 20.2475 107.01 20.2904 107.275 20.2904C108.246 20.2904 108.979 19.9387 109.474 19.2353C109.986 18.5319 110.242 17.3652 110.242 15.7353C110.242 14.0882 109.977 13.0159 109.448 12.5184C108.935 12.0208 108.114 11.772 106.983 11.772H106.718Z" fill="white"/>
<path d="M130.411 24.9485C128.874 24.9485 128.044 24.7083 127.921 24.2279L127.046 20.9081H122.833L122.065 24.0993C121.959 24.6311 121.111 24.8971 119.521 24.8971C118.674 24.8971 118.047 24.8542 117.64 24.7684C117.234 24.6654 117.031 24.5882 117.031 24.5368L121.721 7.11395C121.721 6.9767 122.931 6.90807 125.35 6.90807C127.77 6.90807 128.98 6.9767 128.98 7.11395L133.564 24.5625C133.564 24.6826 133.158 24.777 132.345 24.8456C131.533 24.9142 130.888 24.9485 130.411 24.9485ZM123.496 17.6397H126.278L125.086 12.3125H124.927L123.496 17.6397Z" fill="white"/>
<path fill-rule="evenodd" clip-rule="evenodd" d="M150.146 18.4268C150.147 18.708 150.139 19.1346 150.139 19.1346C150.139 19.1346 149.742 18.9843 149.549 18.8595C149.355 18.7349 149.231 18.7539 149.095 18.7068C148.96 18.661 147.579 18.7094 147.437 18.6662C147.296 18.6227 147.299 18.5986 147.232 18.5783C147.167 18.5579 146.603 18.5107 146.603 18.5107C146.603 18.5107 146.616 18.1823 146.622 18.1136C146.628 18.0437 146.612 17.9979 146.602 17.9647C146.591 17.9303 146.603 17.6503 146.531 17.6134C146.46 17.5764 146.196 17.5994 146.196 17.5994C146.196 17.5994 146.151 17.4937 146.097 17.5103C146.043 17.5269 143.523 18.7933 143.295 18.8469C143.068 18.9004 142.146 19.0544 142.057 19.0505C141.968 19.0467 141.9 19.0161 141.923 18.9717C141.948 18.927 142.332 18.4306 142.388 18.3885C142.445 18.3466 142.45 18.4065 142.512 18.3466C142.574 18.2868 142.858 17.8743 143.014 17.7801C143.169 17.6859 143.693 17.4988 143.847 17.4568C144.002 17.4149 144.09 17.2901 144.09 17.2901C144.09 17.2901 146.363 16.8878 146.691 16.8752C147.02 16.8612 147.294 16.9603 147.396 16.9883C147.499 17.0164 148.101 16.9603 148.241 16.9489C148.381 16.9374 148.383 16.9757 148.519 16.9362C148.655 16.8955 149.287 16.8789 149.64 16.8025C149.993 16.7249 150.147 16.6943 150.147 16.6943C150.147 16.6943 150.144 18.1454 150.146 18.4268ZM156.619 10.2026C156.619 10.2026 156.466 10.135 156.444 10.1084C156.421 10.0803 156.349 10.0333 156.331 9.98733C156.314 9.94152 156.389 9.81176 156.389 9.81176C156.389 9.81176 156.39 9.7697 156.393 9.71636C156.395 9.66285 156.421 9.44778 156.348 9.36743C156.275 9.28862 156.217 9.244 156.196 9.22741C156.176 9.211 155.993 9.1816 155.993 9.1816C155.993 9.1816 155.92 9.08364 155.889 9.06842C155.859 9.0544 155.558 9.23135 155.558 9.23135C155.558 9.23135 155.592 9.3382 155.612 9.37512C155.631 9.41205 155.775 9.46556 155.775 9.46556C155.775 9.46556 155.708 9.48078 155.631 9.52916C155.554 9.57754 155.58 9.59532 155.58 9.59532C155.58 9.59532 155.423 9.56096 155.414 9.56233C155.405 9.56352 155.107 9.69978 155.107 9.69978C155.107 9.69978 155.096 9.72901 155.071 9.75825C155.047 9.78628 154.903 9.63618 154.705 9.62216C154.509 9.60814 154.139 9.5177 154.056 9.54694C153.972 9.57498 153.278 9.92254 153.278 9.92254C153.278 9.92254 153.242 9.90596 153.222 9.88561C153.203 9.8639 152.74 10.1491 152.729 10.1656C152.719 10.1834 152.768 10.2751 152.768 10.2751L151.803 10.8632L151.732 10.8772C151.732 10.8772 150.929 11.3099 150.852 11.3737C150.776 11.4373 150.713 11.5417 150.713 11.5417C150.713 11.5417 150.286 11.7911 150.247 11.8358C150.207 11.8802 150.242 11.8701 150.318 12.0254C150.393 12.1806 151.202 13.4931 151.241 13.5503C151.279 13.6076 152.393 13.106 152.472 13.0641C152.552 13.0221 152.565 13.0462 152.614 13.0756C152.661 13.1048 152.502 13.2053 152.374 13.3047C152.245 13.4038 152.201 13.5286 152.137 13.5859C152.073 13.6432 151.301 13.5884 151.301 13.5884C151.301 13.5884 150.903 13.7285 150.648 13.8863C150.393 14.0442 150.232 14.3332 150.153 14.4222C150.075 14.5113 149.064 14.9823 148.616 15.1644C148.169 15.3463 147.961 15.5029 147.961 15.5029L147.459 15.6277C147.347 15.6557 147.163 15.62 146.899 15.6022C146.637 15.5844 146.088 15.5919 145.607 15.7282C145.127 15.8644 143.961 16.4575 143.918 16.4806C143.874 16.5035 143.883 16.4601 143.787 16.4715C143.69 16.483 143.237 16.6842 143.141 16.6803C143.044 16.6765 143.034 16.6435 142.983 16.623C142.933 16.6027 142.823 16.637 142.74 16.6421C142.657 16.6473 142.558 16.5671 142.443 16.5327C142.331 16.4984 142.056 16.4869 142.012 16.4944C141.968 16.5021 141.908 16.5657 141.877 16.5811C141.846 16.5977 141.816 16.6141 141.731 16.7057C141.646 16.7974 141.288 17.6606 141.213 18.0054C141.138 18.3504 140.853 18.964 140.853 18.964C140.853 18.964 140.657 18.9105 140.605 18.9142C140.552 18.9193 139.743 18.5311 139.702 18.5147C139.661 18.4967 139.65 18.5808 139.65 18.5808C139.65 18.5808 139.452 18.7398 139.264 18.8163C139.075 18.8927 138.933 18.9207 138.847 18.9817C138.761 19.043 138.556 19.4413 138.556 19.4413C138.556 19.4413 138.931 19.6818 139.264 19.7875C139.598 19.8931 140.305 19.9887 140.305 19.9887C140.305 19.9887 140.309 20.0255 140.214 20.186C140.119 20.3464 138.961 21.9845 138.922 22.0597C138.884 22.1348 138.954 22.2073 138.99 22.2582C139.027 22.3104 139.113 22.397 139.161 22.4887C139.21 22.5803 139.3 23.2308 139.3 23.2308C139.3 23.2308 139.399 23.1785 139.477 23.0894C139.556 23.0003 139.857 22.5904 140.172 22.2367C140.486 21.8814 141.57 19.8995 141.57 19.8995C141.57 19.8995 141.781 19.8511 142.024 19.8321C142.266 19.813 143.534 19.3777 144.069 19.3459C144.605 19.3127 145.224 19.3305 145.335 19.3191C145.447 19.3064 145.528 19.2949 145.754 19.3483C145.98 19.4006 146.383 19.5635 146.551 19.6552C146.72 19.7468 146.834 19.5916 146.834 19.5916C146.834 19.5916 147.841 20.0383 148.248 20.2229C148.655 20.4074 149.775 20.6225 150.013 20.6989C150.252 20.7765 150.695 20.7461 150.915 20.6696C151.134 20.5932 151.232 20.5105 151.359 20.3564C151.486 20.2024 151.557 19.9378 151.557 19.9378C151.557 19.9378 151.566 19.9326 151.607 19.8995C151.648 19.8665 152.149 18.6215 152.311 17.9252C152.474 17.2277 152.521 16.3495 152.521 16.3495C152.521 16.3495 152.653 16.2871 152.752 16.2349C152.851 16.1826 152.865 16.1356 152.865 16.1356C152.865 16.1356 152.903 16.2336 152.935 16.2946C152.967 16.3558 153.045 16.3226 153.045 16.3226L153.468 17.2111C153.468 17.2111 153.47 17.3041 153.418 17.3665C153.365 17.4301 153.091 17.5077 153.091 17.5077C153.091 17.5077 153.058 17.9011 153.05 17.9444C153.043 17.9876 153.118 17.9596 153.185 17.9315C153.253 17.9037 153.307 17.8871 153.407 17.7712C153.507 17.6554 153.795 17.2137 153.805 17.0559C153.816 16.8981 153.572 16.2233 153.572 16.2233C153.572 16.2233 153.79 16.1152 153.889 16.0795C153.988 16.0426 153.913 16.0669 153.893 15.9993C153.872 15.9318 153.921 15.9051 153.976 15.8607C154.031 15.8161 154.085 15.8581 154.133 15.8874C154.18 15.9166 154.137 15.9243 154.138 15.9701C154.139 16.0159 154.11 16.0795 154.107 16.2055C154.104 16.3329 154.181 16.5505 154.173 16.6803C154.164 16.8102 153.984 17.9163 154.015 18.0016C154.045 18.0869 154.025 18.1531 154.039 18.2078C154.053 18.2625 154.03 18.3224 154.03 18.3224C154.03 18.3224 153.964 18.4663 153.983 18.5273C153.999 18.5884 154.256 18.6101 154.315 18.5872C154.374 18.5643 154.368 18.5668 154.406 18.1391C154.445 17.7113 154.296 16.0388 154.296 16.0388C154.296 16.0388 154.302 16.0351 154.321 16.0286C154.342 16.0222 154.435 16.091 154.461 16.1267C154.488 16.1623 154.6 16.3469 154.66 16.3787C154.721 16.4093 154.786 16.371 154.831 16.3507C154.876 16.3303 154.867 16.3672 154.899 16.3965C154.931 16.4271 155.017 16.4551 155.017 16.4551C155.017 16.4551 155.019 16.8458 155.02 16.8649C155.023 16.8841 154.822 16.8637 154.786 16.8712C154.75 16.8789 154.754 16.8841 154.731 16.982C154.709 17.08 154.775 17.7891 154.791 17.8272C154.808 17.8654 155.094 17.8628 155.143 17.8642C155.192 17.8654 155.217 17.845 155.217 17.845C155.217 17.845 155.4 17.7751 155.444 17.7089C155.487 17.6426 155.54 17.5052 155.523 17.3422C155.507 17.1793 155.439 17.0456 155.404 17.0533C155.368 17.061 155.324 17.0444 155.298 17.0393C155.27 17.0342 155.277 16.9871 155.269 16.921C155.262 16.8548 155.233 16.4067 155.233 16.4067L155.337 16.352C155.39 16.324 155.381 16.3291 155.399 16.2922C155.418 16.2539 155.418 16.2106 155.423 16.1611C155.428 16.1113 155.458 16.1076 155.475 16.0872C155.491 16.0669 155.504 16.0681 155.556 16.119C155.607 16.17 155.654 16.0669 155.684 15.9968C155.713 15.9269 155.644 15.8492 155.618 15.8009C155.593 15.7525 155.62 15.7525 155.642 15.7104C155.662 15.6684 155.708 15.4444 155.708 15.4444C155.708 15.4444 155.774 15.4253 155.824 15.3946C155.874 15.3642 155.853 15.317 155.837 15.2432C155.821 15.1695 155.746 15.1707 155.746 15.1707L155.667 15.0473C155.667 15.0473 155.794 15.0625 155.958 15.0433C156.121 15.0243 156.731 15.0548 156.731 15.0548C156.731 15.0548 156.745 15.0587 156.791 15.1363C156.837 15.2139 156.991 15.3324 157.054 15.3693C157.117 15.4061 157.159 15.4112 157.189 15.4152C157.219 15.4189 157.262 15.3883 157.284 15.3998C157.306 15.4112 157.414 15.4495 157.466 15.4519C157.519 15.4559 157.534 15.3883 157.55 15.3413C157.564 15.2941 157.536 15.2114 157.536 15.2114C157.536 15.2114 157.637 15.1503 157.665 15.0765C157.692 15.0026 157.664 14.972 157.664 14.972C157.664 14.972 157.681 14.9594 157.718 14.9556C157.755 14.9517 157.777 14.8308 157.76 14.7773C157.744 14.724 157.596 14.6487 157.596 14.6487C157.596 14.6487 157.588 14.5978 157.588 14.5545C157.588 14.5113 157.813 13.8086 157.859 13.577C157.904 13.3453 157.953 12.5129 157.953 12.5129C157.953 12.5129 157.993 12.4975 158.008 12.4975C158.024 12.4975 158.09 12.4594 158.101 12.4276C158.111 12.3945 158.042 12.1628 158.042 12.1628C158.042 12.1628 158.268 11.9807 158.349 11.9541C158.429 11.9274 158.653 11.9973 158.777 11.9936C158.902 11.9896 158.994 11.9057 159.021 11.9183C159.048 11.9312 159.119 12.0941 159.155 12.1373C159.191 12.182 159.445 12.215 159.481 12.2074C159.517 12.1997 159.504 12.1322 159.509 12.1055C159.515 12.0789 159.552 12.0445 159.552 12.0445L159.59 12.0431C159.59 12.0431 159.671 12.1336 159.721 12.1616C159.771 12.1895 159.856 12.1411 159.905 12.0763C159.954 12.0113 160.017 11.6804 159.996 11.5621C159.975 11.4436 159.938 11.4169 159.897 11.3991C159.856 11.3812 159.767 11.3926 159.738 11.3966C159.708 11.4003 159.348 11.3253 159.348 11.3253C159.348 11.3253 159.335 11.3239 159.331 11.2947C159.327 11.2654 159.318 11.2273 159.309 11.2094C159.299 11.1916 159.282 11.0936 159.282 11.0936C159.282 11.0936 159.513 10.9943 159.539 10.9688C159.565 10.9433 159.595 10.1986 159.571 10.1757C159.547 10.1528 159.272 10.1032 159.272 10.1032C159.272 10.1032 159.183 10.0128 159.148 9.98494C159.114 9.9569 159.078 9.95554 159.078 9.95554C159.078 9.95554 159.03 9.82321 158.96 9.69208C158.889 9.56096 158.824 9.54061 158.655 9.50112C158.487 9.46043 157.911 9.37393 157.698 9.44778C157.484 9.52147 157.402 9.589 157.284 9.75192C157.167 9.91621 157.157 10.0154 157.143 10.0612C157.129 10.1084 157.093 10.158 157.064 10.1809C157.037 10.2026 157.004 10.2446 156.941 10.2306C156.874 10.2241 156.619 10.2026 156.619 10.2026ZM156.014 10.4763C155.981 10.4623 155.958 10.4469 155.974 10.4317C155.992 10.4164 156.087 10.34 156.118 10.3031C156.149 10.265 156.219 10.2127 156.219 10.2127C156.219 10.2127 156.218 10.2012 156.218 10.2051L156.385 10.3681C156.385 10.3681 156.381 10.4279 156.363 10.4431C156.345 10.4571 156.046 10.4903 156.014 10.4763ZM157.69 12.5333C157.69 12.5333 157.686 12.7152 157.668 12.7203C157.651 12.7254 157.616 12.7128 157.625 12.6923C157.635 12.6719 157.635 12.5473 157.647 12.5345C157.659 12.5218 157.69 12.5333 157.69 12.5333ZM157.104 14.0709C157.126 14.0594 157.301 14.0174 157.301 14.0174C157.301 14.0174 157.358 14.0735 157.35 14.0938C157.341 14.1142 157.308 14.1943 157.262 14.2109C157.216 14.2275 157.09 14.2593 157.007 14.3154C156.922 14.3713 156.899 14.4592 156.854 14.4706C156.809 14.4821 156.746 14.4692 156.714 14.4668C156.68 14.4643 156.542 14.4325 156.537 14.4159C156.531 14.3993 156.565 14.3586 156.615 14.3114C156.665 14.2656 156.888 14.034 156.903 14.0225C156.917 14.0111 156.92 13.9818 156.944 14.0047C156.968 14.0276 156.989 14.0747 157.007 14.0849C157.022 14.095 157.082 14.0824 157.104 14.0709ZM157.308 13.6062C157.32 13.6202 157.341 13.6216 157.343 13.6623C157.346 13.7044 157.365 13.894 157.331 13.8914C157.298 13.8888 157.24 13.67 157.24 13.67C157.253 13.6509 157.297 13.5936 157.308 13.6062ZM157.542 13.232C157.563 13.2334 157.64 13.3021 157.635 13.3236C157.631 13.3453 157.461 13.8023 157.447 13.8341C157.433 13.8659 157.385 14.0506 157.393 13.9996C157.401 13.9487 157.393 13.6394 157.399 13.6013L157.446 13.3339C157.471 13.3007 157.522 13.232 157.542 13.232ZM155.823 10.3756C155.823 10.3756 155.602 10.326 155.559 10.2904C155.516 10.2547 155.507 10.2407 155.512 10.228C155.516 10.214 155.552 10.1439 155.577 10.1299C155.603 10.1159 155.801 10.1007 155.874 10.0969C155.943 10.093 156.061 10.1032 156.068 10.102C156.068 10.107 156.063 10.1822 156.051 10.2089C156.038 10.2369 155.96 10.3157 155.923 10.3375C155.884 10.3578 155.823 10.3756 155.823 10.3756ZM155.987 9.43496C155.987 9.41205 156.013 9.33563 156.044 9.34213C156.076 9.34965 156.159 9.35854 156.209 9.41462C156.259 9.47069 156.311 9.57241 156.288 9.64763C156.264 9.72269 156.228 9.84732 156.187 9.82201C156.146 9.79654 155.987 9.43496 155.987 9.43496ZM157.651 12.8451C157.653 12.8617 157.659 13.0551 157.644 13.0665C157.628 13.078 157.541 13.0679 157.542 13.0539C157.542 13.0398 157.599 12.8437 157.605 12.8337C157.613 12.8248 157.651 12.8451 157.651 12.8451Z" fill="#0055D5"/>
<path d="M44.0493 3.08735C44.0936 3.03576 44.1537 3.00604 44.2187 2.98956C44.3767 2.94897 44.5371 2.94386 44.6989 2.96183C44.7599 2.96868 44.8058 2.99685 44.835 3.04856C44.8846 3.13593 44.9682 3.18025 45.0599 3.21437C45.1565 3.25001 45.247 3.22597 45.3339 3.1831C45.5262 3.08828 45.7083 2.97732 45.8829 2.85318C46.0021 2.76882 46.1238 2.68884 46.2442 2.60536C46.5247 2.41062 46.8157 2.23285 47.1247 2.08316C47.3485 1.97478 47.5812 1.88894 47.8163 1.8074C47.9192 1.77137 48.0217 1.73396 48.1035 1.65952C48.1575 1.60974 48.1942 1.54697 48.2365 1.48854C48.397 1.27066 48.5338 1.0373 48.6974 0.820652C48.8508 0.617749 49.0286 0.437644 49.228 0.276574C49.3564 0.173053 49.4918 0.0813364 49.6509 0.0285114C49.6954 0.0133708 49.7405 0.0023396 49.7878 0.000165321C49.8553 -0.00280517 49.8842 0.0344297 49.8608 0.0977295C49.8382 0.161166 49.7974 0.214733 49.755 0.266041C49.6289 0.41876 49.5234 0.582452 49.4547 0.766795C49.3813 0.963855 49.3157 1.16309 49.3109 1.37562C49.3092 1.44168 49.3135 1.50753 49.317 1.574C49.3197 1.62458 49.3431 1.66538 49.3881 1.69469C49.4492 1.73414 49.5193 1.75242 49.588 1.77382C49.8806 1.86509 50.1732 1.95636 50.466 2.04579C50.9282 2.1871 51.3829 2.34845 51.8442 2.49025C51.9009 2.50809 51.9581 2.52331 52.0149 2.54115C52.1139 2.57143 52.2105 2.56089 52.3063 2.52679C52.3993 2.49341 52.4927 2.4615 52.5884 2.43516C52.7585 2.38767 52.9225 2.4113 53.0844 2.46636C53.1233 2.47946 53.1709 2.49559 53.1709 2.54632C53.1706 2.59833 53.1259 2.61793 53.0818 2.63381C53.0408 2.64821 52.9983 2.65981 52.9653 2.69134C52.947 2.70935 52.944 2.72442 52.9558 2.74938C53.0144 2.87232 53.1181 2.93342 53.2482 2.96623C53.3578 2.99399 53.4662 3.02469 53.5781 3.04437C53.688 3.06432 53.7939 3.06076 53.8991 3.01992C54.0899 2.94579 54.2756 2.86015 54.4609 2.77384C54.8444 2.59589 55.2307 2.42428 55.6359 2.2959C55.8495 2.2285 56.0441 2.11856 56.2385 2.00991C56.3379 1.95433 56.4367 1.89806 56.5422 1.85278C56.5577 1.84585 56.5738 1.83912 56.5898 1.83558C56.6101 1.83097 56.6327 1.82546 56.6488 1.84542C56.6667 1.86694 56.6613 1.89064 56.6503 1.91207C56.6266 1.95706 56.589 1.99101 56.5488 2.02185C56.506 2.05484 56.4767 2.09492 56.4656 2.1475C56.4574 2.18501 56.4454 2.22179 56.4372 2.25993C56.4259 2.30987 56.3965 2.3402 56.3429 2.34709C56.3202 2.34995 56.2979 2.35421 56.2763 2.35866C56.228 2.3691 56.1855 2.3846 56.1605 2.43263C56.1421 2.46756 56.1078 2.48911 56.0747 2.51089C55.7557 2.72378 55.4348 2.93367 55.1181 3.14959C54.926 3.28077 54.7337 3.41265 54.5499 3.55586C54.4517 3.63245 54.4244 3.73929 54.4367 3.85552C54.4452 3.93452 54.433 3.955 54.3507 3.95846C54.2648 3.9625 54.1897 3.93279 54.1196 3.88845C54.0214 3.82643 53.9387 3.74718 53.8627 3.66132C53.8195 3.61223 53.7685 3.58246 53.7031 3.57805C53.4677 3.56322 53.2321 3.53917 52.9955 3.55406C52.9216 3.55838 52.8492 3.57215 52.7806 3.60029C52.6962 3.63463 52.6748 3.67809 52.6989 3.76263C52.7163 3.82319 52.6897 3.85592 52.6255 3.85567C52.4643 3.85466 52.349 3.77126 52.2477 3.66054C52.2175 3.62754 52.1866 3.59441 52.1631 3.55744C52.1293 3.50487 52.0809 3.47566 52.0229 3.45766C51.9914 3.44783 51.9627 3.44377 51.9292 3.46088C51.8607 3.4955 51.7817 3.49894 51.7075 3.51499C51.655 3.52659 51.6027 3.53699 51.5556 3.56523C51.5259 3.58308 51.5072 3.60626 51.5013 3.63967C51.487 3.71506 51.5046 3.78474 51.5425 3.84979C51.56 3.87974 51.5799 3.90818 51.5965 3.93864C51.6128 3.96772 51.6332 4.00017 51.611 4.03121C51.5877 4.06392 51.5507 4.08496 51.5084 4.07899C51.2218 4.03828 50.9745 3.92817 50.7931 3.69891C50.7396 3.63093 50.7008 3.55336 50.6426 3.48909C50.6064 3.44916 50.5641 3.42625 50.5087 3.41849C50.2296 3.38041 49.9545 3.42392 49.6796 3.45627C49.3718 3.49226 49.0657 3.54299 48.7606 3.59898C48.7287 3.60469 48.7101 3.61748 48.7003 3.64691C48.677 3.71668 48.66 3.78903 48.6669 3.86193C48.6845 4.0461 48.7216 4.22687 48.8117 4.39344C48.86 4.48384 48.9352 4.55 49.0153 4.61247C49.1348 4.70517 49.2561 4.79559 49.381 4.88152C49.4064 4.89864 49.4306 4.91816 49.4532 4.93925C49.47 4.95542 49.489 4.97461 49.4785 5.00062C49.4679 5.02663 49.4409 5.0281 49.4168 5.02809C49.3846 5.02796 49.352 5.02764 49.3193 5.02347C49.0467 4.98997 48.7811 4.93175 48.5286 4.82386C48.365 4.75416 48.2317 4.64324 48.1123 4.5161C47.9321 4.32486 47.7676 4.12152 47.6289 3.89968C47.601 3.85467 47.5743 3.84714 47.5253 3.85161C47.256 3.87592 46.9855 3.89225 46.7175 3.92662C46.5127 3.95329 46.31 3.99277 46.1068 4.03144C46.1013 4.03237 46.0957 4.03329 46.0901 4.03478C46.0721 4.04122 46.041 4.02885 46.0367 4.04696C46.0321 4.06687 46.0634 4.0747 46.0799 4.0863C46.1111 4.1077 46.1463 4.12217 46.1814 4.13783C46.2084 4.15009 46.2363 4.16114 46.2615 4.17624C46.3088 4.20467 46.3623 4.23492 46.3537 4.29837C46.3444 4.36561 46.2998 4.41446 46.2317 4.43425C46.1152 4.46774 45.9959 4.48834 45.874 4.5019C45.7631 4.51433 45.6714 4.48021 45.5813 4.4282C45.5495 4.40981 45.521 4.38825 45.5004 4.35706C45.4815 4.32749 45.4533 4.31107 45.4178 4.30442C45.3274 4.28747 45.2359 4.27621 45.1487 4.24685C45.0772 4.22239 45.0108 4.18908 44.9571 4.13605C44.9325 4.11131 44.9039 4.10334 44.869 4.104C44.7115 4.10826 44.591 4.03427 44.4861 3.92868C44.4837 3.92693 44.4814 3.92518 44.4806 3.92249C44.4496 3.84245 44.3765 3.81248 44.3044 3.78136C44.2705 3.76657 44.2431 3.74253 44.2167 3.71745C44.1698 3.67356 44.1492 3.62215 44.1714 3.5606C44.185 3.5228 44.1766 3.49782 44.1387 3.47959C44.1191 3.4701 44.1023 3.45394 44.0859 3.43851C44.0296 3.38499 44.0221 3.33864 44.0664 3.27732C44.0849 3.25149 44.0858 3.23349 44.0696 3.20697C44.056 3.18493 44.0505 3.15854 44.0413 3.13399C44.0429 3.11931 44.0461 3.10305 44.0493 3.08735Z" fill="#0055D5"/>
</svg>
